<svg xmlns="http://www.w3.org/2000/svg" width="448.626" height="352.833" viewBox="0 0 448.626 352.833">
  <g id="map" transform="translate(0)">
    <g id="Group_1595" data-name="Group 1595" transform="translate(0)">
      <g id="Group_1593" data-name="Group 1593">
        <g id="Group_1592" data-name="Group 1592">
          <g id="Group_1591" data-name="Group 1591">
            <path id="Path_906" data-name="Path 906" d="M-1533.443,3888.677c-.462.046-.926.114-1.365.183a24.358,24.358,0,0,0-4.861,1.288,29.274,29.274,0,0,0-3.009,1.356,28.266,28.266,0,0,0-2.778,1.724c-.44.3-.88.645-1.32.989a15.489,15.489,0,0,0-1.944,1.747c-.3.3-.6.621-.9.943a24.542,24.542,0,0,0-3.75,5.447c-.232.438-.44.873-.648,1.311a25.042,25.042,0,0,0-2.153,10.2v302.173a25.283,25.283,0,0,0,1.551,8.712,21.025,21.025,0,0,0,1.528,3.356,21.1,21.1,0,0,0,1.273,2.091,27.779,27.779,0,0,0,2.269,2.873c.278.3.579.6.857.874a13.434,13.434,0,0,0,1.805,1.631c.44.368.879.713,1.342,1.036a27.431,27.431,0,0,0,4.375,2.527h.023a25.389,25.389,0,0,0,6.6,1.931,22.722,22.722,0,0,0,3.773.3H-1132.1a24.349,24.349,0,0,0,24.442-24.272V4029.524l.115-.666a.308.308,0,0,0-.115-.138V3912.81a23.756,23.756,0,0,0-2.616-10.917,24.432,24.432,0,0,0-21.827-13.354h-398.676A25.394,25.394,0,0,0-1533.443,3888.677Z" transform="translate(1556.173 -3888.54)" fill="#e5e6ea"/>
            <g id="Group_1590" data-name="Group 1590" transform="translate(0 0.004)">
              <g id="Group_1557" data-name="Group 1557" transform="translate(0.007)">
                <path id="Path_907" data-name="Path 907" d="M-1278.693,3888.549h24.29l-28.61,14.583-4.973,2.531-61.975,31.6-9.853,5.031-42.736,21.789-4.943,2.516-49.761,25.369-4.957,2.531-38.634,19.69-5.02,2.562-47.757,24.351a5.307,5.307,0,0,1-2.533.6v-11.7l46.5-23.7,4.958-2.531,62.084-31.651,4.958-2.53,72.978-37.206,9.853-5.031Z" transform="translate(1556.155 -3888.549)" fill="#fff"/>
              </g>
              <g id="Group_1558" data-name="Group 1558" transform="translate(169.943)">
                <path id="Path_908" data-name="Path 908" d="M-1129.353,3888.549h12.324l19.068,38.811,4.864,9.907,36.536,74.319,2.424,4.969,27.134,55.214,2.424,4.938,2.906,5.91,20.934,42.591,5.532,11.266,21.384,43.5,3.217,6.543,5.191,10.586c.062.123.124.262.187.4l10.536,21.418,2.44,4.969,7.413,15.078a5.349,5.349,0,0,1,.559,2.406H-956l-17.374-35.369-5-10.2-28.082-57.143c-.078-.14-.14-.278-.2-.417l-22.223-45.23-4.9-9.938L-1045.9,4058.4l-2.424-4.937-35.728-72.73-2.44-4.937-16.457-33.5-4.864-9.907Z" transform="translate(1129.353 -3888.549)" fill="#fff"/>
              </g>
              <g id="Group_1559" data-name="Group 1559" transform="translate(292.216 177.785)">
                <path id="Path_909" data-name="Path 909" d="M-665.965,4335.264v11.01c-31.572-1.264-57.079,3.355-77.4,10.549q-3.75,1.31-7.221,2.758c-36.988,15.055-54.857,38.27-59.787,45.624-.949,1.4-1.435,2.229-1.481,2.322a5.542,5.542,0,0,1-7.5,2.161,5.632,5.632,0,0,1-2.476-2.713,5.479,5.479,0,0,1,.254-4.757,72.214,72.214,0,0,1,5.672-8.275c6.18-8,17.73-20.548,36.177-32.039.417-.253.834-.506,1.25-.782,2.661-1.609,5.532-3.241,8.587-4.851,15.392-8.113,35.854-15.628,61.986-19.122,3.565-.482,7.245-.9,11.041-1.218A250.7,250.7,0,0,1-665.965,4335.264Z" transform="translate(822.258 -4335.063)" fill="#fff"/>
              </g>
              <g id="Group_1560" data-name="Group 1560" transform="translate(80.15)">
                <path id="Path_910" data-name="Path 910" d="M-1354.872,3888.549h5.765l5.206,12.947,27.383,68.1,2.16,5.385a2.593,2.593,0,0,1,.2,1.019,2.715,2.715,0,0,1-1.741,2.546,2.779,2.779,0,0,1-3.606-1.527l-1.974-4.893-26.434-65.753-2.067-5.14-4.693-11.666A2.65,2.65,0,0,1-1354.872,3888.549Z" transform="translate(1354.872 -3888.549)" fill="#fff"/>
              </g>
              <g id="Group_1561" data-name="Group 1561" transform="translate(0.007 11.178)">
                <path id="Path_911" data-name="Path 911" d="M-1465.2,3918.068a2.939,2.939,0,0,1,.155.324,2.718,2.718,0,0,1,.187.988,2.765,2.765,0,0,1-1.461,2.423l-2.735,1.465-62.488,33.58-4.911,2.64-18.385,9.876a2.715,2.715,0,0,1-1.321.34v-5.9l17.561-9.43,4.911-2.638,62.566-33.61,2.175-1.173A2.765,2.765,0,0,1-1465.2,3918.068Z" transform="translate(1556.155 -3916.622)" fill="#fff"/>
              </g>
              <g id="Group_1562" data-name="Group 1562" transform="translate(321.421 191.006)">
                <path id="Path_912" data-name="Path 912" d="M-696.973,4371.024a2.728,2.728,0,0,1-.223,1.08l-46.394,107.622a2.781,2.781,0,0,1-3.639,1.447,2.745,2.745,0,0,1-1.457-3.613l46.394-107.621a2.779,2.779,0,0,1,3.639-1.448A2.755,2.755,0,0,1-696.973,4371.024Z" transform="translate(748.911 -4368.269)" fill="#fff"/>
              </g>
              <g id="Group_1563" data-name="Group 1563" transform="translate(346.701 244.836)">
                <path id="Path_913" data-name="Path 913" d="M-680.962,4504.028l.138.115,34.188,26.064,38.84,29.581,4.768,3.63,19.4,14.78.023.023v6.942l-4.7-3.587-18.4-14.021-5.3-4.021-38.33-29.214-32.729-24.96-1.25-.966a2.712,2.712,0,0,1-.532-3.838A2.788,2.788,0,0,1-680.962,4504.028Z" transform="translate(685.417 -4503.465)" fill="#fff"/>
              </g>
              <g id="Group_1564" data-name="Group 1564" transform="translate(265.835 143.061)">
                <path id="Path_914" data-name="Path 914" d="M-802.1,4250.6a2.748,2.748,0,0,1-1.476,2.437l-80.868,42.442a2.78,2.78,0,0,1-3.744-1.149,2.739,2.739,0,0,1,1.155-3.718l80.867-42.442a2.781,2.781,0,0,1,3.744,1.148A2.715,2.715,0,0,1-802.1,4250.6Z" transform="translate(888.516 -4247.853)" fill="#fff"/>
              </g>
              <g id="Group_1565" data-name="Group 1565" transform="translate(236.313 70.17)">
                <path id="Path_915" data-name="Path 915" d="M-855.532,4067.534a2.746,2.746,0,0,1-1.44,2.415L-958.561,4125.2a2.779,2.779,0,0,1-3.761-1.092,2.739,2.739,0,0,1,1.1-3.734l101.589-55.249a2.781,2.781,0,0,1,3.761,1.092A2.717,2.717,0,0,1-855.532,4067.534Z" transform="translate(962.663 -4064.784)" fill="#fff"/>
              </g>
              <g id="Group_1566" data-name="Group 1566" transform="translate(265.836 7.957)">
                <path id="Path_916" data-name="Path 916" d="M-849.731,3994.612a2.751,2.751,0,0,1-1.752,2.559,2.778,2.778,0,0,1-3.6-1.544l-33.239-83.328a2.748,2.748,0,0,1,1.557-3.572,2.778,2.778,0,0,1,3.6,1.544l33.24,83.328A2.738,2.738,0,0,1-849.731,3994.612Z" transform="translate(888.513 -3908.533)" fill="#fff"/>
              </g>
              <g id="Group_1567" data-name="Group 1567" transform="translate(306.269)">
                <path id="Path_917" data-name="Path 917" d="M-725.459,3888.549h5.579a1.618,1.618,0,0,1-.031.386l-5.113,35.384h-.016l-.793,5.479-5.967,41.279-.793,5.479-8.423,58.178-7.63,52.807h-.016l-1.29,8.965a2.791,2.791,0,0,1-2.036,2.27,2.8,2.8,0,0,1-2.906-.988l-3.59-4.614-26.481-34.073-1.43-1.836a2.74,2.74,0,0,1,.513-3.858,2.147,2.147,0,0,1,.4-.247,2.766,2.766,0,0,1,3.481.741l2.02,2.592,25.471,32.777,7.227-49.937.979-6.76,8.221-56.788.793-5.494,5.967-41.279.792-5.463Z" transform="translate(786.966 -3888.549)" fill="#fff"/>
              </g>
              <g id="Group_1568" data-name="Group 1568" transform="translate(0 8.362)">
                <path id="Path_918" data-name="Path 918" d="M-1549.622,3909.55l15.925,37.924,2.153,5.126,26.827,63.828,2.222,5.286.069.207c.115.275.6,1.816,1.365,4.251.07.208.139.437.208.667,1.551,5.034,3.935,13.285,5.856,22.2a129.374,129.374,0,0,1,3.172,22.133c.023.759.046,1.494.046,2.229,0,1.563-.07,3.081-.208,4.482-.046.344-.116.711-.162,1.034-1.62,8.32-12.43,15.262-24.72,20.571q-2.6,1.1-5.278,2.137a242.522,242.522,0,0,1-33.447,9.814,2.409,2.409,0,0,1-.578.069v-5.584a222.1,222.1,0,0,0,34.813-10.573,1.988,1.988,0,0,1,.51-.207c12.638-5.264,22.706-11.516,23.331-17.813.787-7.676-.995-18.685-3.263-28.753-1.713-7.538-3.7-14.525-5.093-19.191-.949-3.126-1.62-5.195-1.782-5.654l-.394-.965-1.62-3.815-26.781-63.736-2.152-5.1L-1553.372,3915A24.571,24.571,0,0,1-1549.622,3909.55Z" transform="translate(1556.173 -3909.55)" fill="#fff"/>
              </g>
              <g id="Group_1569" data-name="Group 1569" transform="translate(58.652 150.654)">
                <path id="Path_919" data-name="Path 919" d="M-1207.61,4281.18a2.747,2.747,0,0,1-1.5,2.448c-61.434,31.377-103.024,31.829-127.147,1.378-6.224-7.855-13.788-12.074-22.479-12.535-22.183-1.177-45.144,21.9-45.373,22.136a2.784,2.784,0,0,1-3.918.049,2.739,2.739,0,0,1-.05-3.889c1.006-1.026,24.918-25.09,49.62-23.791,10.362.545,19.3,5.466,26.556,14.627,22.222,28.05,61.558,27.111,120.258-2.868a2.779,2.779,0,0,1,3.732,1.188A2.734,2.734,0,0,1-1207.61,4281.18Z" transform="translate(1408.867 -4266.924)" fill="#fff"/>
              </g>
              <g id="Group_1570" data-name="Group 1570" transform="translate(146.188 68.959)">
                <path id="Path_920" data-name="Path 920" d="M-1134.273,4179.576a2.751,2.751,0,0,1-1.688,2.535,2.779,2.779,0,0,1-3.635-1.458l-49.2-115.083a2.742,2.742,0,0,1,1.468-3.607,2.778,2.778,0,0,1,3.634,1.458l49.2,115.083A2.718,2.718,0,0,1-1134.273,4179.576Z" transform="translate(1189.015 -4061.743)" fill="#fff"/>
              </g>
              <g id="Group_1571" data-name="Group 1571" transform="translate(0.007 96.849)">
                <path id="Path_921" data-name="Path 921" d="M-1459.352,4133.471l2.1,4.892,21.291,49.783.45,1.05a2.906,2.906,0,0,1,.218,1.08,2.829,2.829,0,0,1-.4,1.435l-1.244,2.037-29.729,48.579-3.092,5.061-35.4,57.839-.529.879a2.653,2.653,0,0,1-1.476,1.173l-3.108,1.049-44.975,15.247a2.65,2.65,0,0,1-.9.154v-5.648l44.99-15.245,1.258-.434,3.388-5.538,34.174-55.849,30.056-49.134,1.119-1.821-1.678-3.919-19.363-45.246-2.254-5.277a2.759,2.759,0,0,1,1.477-3.61A2.793,2.793,0,0,1-1459.352,4133.471Z" transform="translate(1556.155 -4131.79)" fill="#fff"/>
              </g>
              <g id="Group_1572" data-name="Group 1572" transform="translate(170.938 159.763)">
                <path id="Path_922" data-name="Path 922" d="M-1107.667,4291a27.418,27.418,0,0,0-5.092,2.186,26.99,26.99,0,0,0-14.05,21.956v.027c-.022.546-.046,1.092-.046,1.666a12.491,12.491,0,0,0,.046,1.311,19.676,19.676,0,0,0,.255,2.622v.026a27.132,27.132,0,0,0,19.512,22.039h.023a26.4,26.4,0,0,0,7.384,1.01,27.18,27.18,0,0,0,5.416-.519,27.156,27.156,0,0,0,21.8-26.489,26.127,26.127,0,0,0-.417-4.7,23.5,23.5,0,0,0-.6-2.621,19.508,19.508,0,0,0-.926-2.675v-.028a27.308,27.308,0,0,0-25.276-17.014A26.9,26.9,0,0,0-1107.667,4291Zm28.077,17.614v.027a18.974,18.974,0,0,1,.9,2.677v.027a19.892,19.892,0,0,1,.532,2.621,19.584,19.584,0,0,1,.209,2.868,21.615,21.615,0,0,1-21.688,21.519,21.646,21.646,0,0,1-21.226-17.122v-.027a19.892,19.892,0,0,1-.37-2.621c-.046-.575-.069-1.147-.069-1.748,0-.41,0-.792.023-1.175v-.027a21.534,21.534,0,0,1,10.694-17.369,20.729,20.729,0,0,1,5.092-2.156h.024a21.617,21.617,0,0,1,5.833-.792A21.754,21.754,0,0,1-1079.59,4308.617Z" transform="translate(1126.856 -4289.802)" fill="#fff"/>
              </g>
              <g id="Group_1573" data-name="Group 1573" transform="translate(334.954 34.989)">
                <path id="Path_923" data-name="Path 923" d="M-706.426,4014.356a2.736,2.736,0,0,1-1.435,2.4l-1.273.682h-.023l-1.018.574v.028a26.831,26.831,0,0,0,15.462,10.622l.162-1.091.625-4.4a21.291,21.291,0,0,1-12.846-10.132A2.706,2.706,0,0,1-706.426,4014.356Zm0,0a2.736,2.736,0,0,1-1.435,2.4l-1.273.682h-.023l-1.018.574v.028a26.831,26.831,0,0,0,15.462,10.622l.162-1.091.625-4.4a21.291,21.291,0,0,1-12.846-10.132A2.706,2.706,0,0,1-706.426,4014.356Zm0,0a2.736,2.736,0,0,1-1.435,2.4l-1.273.682-1.042.574v.028a26.831,26.831,0,0,0,15.462,10.622l.162-1.091.625-4.4a21.291,21.291,0,0,1-12.846-10.132A2.706,2.706,0,0,1-706.426,4014.356Zm-8.5-11.415a26.111,26.111,0,0,0,2.084,10.242v.026a25.227,25.227,0,0,0,1.2,2.458c.278.492.555.983.856,1.447.185.3.393.6.6.9v.028a26.831,26.831,0,0,0,15.462,10.622c.324.082.648.165.973.22a15.311,15.311,0,0,0,1.574.272,21.267,21.267,0,0,0,2.94.273,6.612,6.612,0,0,0,1.041.054,26.7,26.7,0,0,0,26.735-26.544,26.659,26.659,0,0,0-20.207-25.751h-.023a27.508,27.508,0,0,0-5.486-.765h-1.019A26.643,26.643,0,0,0-714.921,4002.941Zm47.913,0a21.128,21.128,0,0,1-21.179,21.028h-.255a22.575,22.575,0,0,1-5.485-.792,21.291,21.291,0,0,1-12.846-10.132v-.027a20.812,20.812,0,0,1-2.592-10.077,21.128,21.128,0,0,1,21.179-21.028h.232a20.188,20.188,0,0,1,5.486.764A21.1,21.1,0,0,1-667.008,4002.941Zm-39.418,11.415a2.736,2.736,0,0,1-1.435,2.4l-1.273.682h-.023l-1.018.574v.028a26.831,26.831,0,0,0,15.462,10.622l.162-1.091.625-4.4a21.291,21.291,0,0,1-12.846-10.132A2.706,2.706,0,0,1-706.426,4014.356Zm0,0a2.736,2.736,0,0,1-1.435,2.4l-1.273.682h-.023l-1.018.574v.028a26.831,26.831,0,0,0,15.462,10.622l.162-1.091.625-4.4a21.291,21.291,0,0,1-12.846-10.132A2.706,2.706,0,0,1-706.426,4014.356Z" transform="translate(714.921 -3976.425)" fill="#fff"/>
              </g>
              <g id="Group_1574" data-name="Group 1574" transform="translate(163.156 84.696)">
                <path id="Path_924" data-name="Path 924" d="M-1087.708,4104.018a2.752,2.752,0,0,1-1.625,2.507l-53.147,23.95a2.78,2.78,0,0,1-3.67-1.369,2.746,2.746,0,0,1,1.378-3.642l53.148-23.951a2.78,2.78,0,0,1,3.669,1.369A2.729,2.729,0,0,1-1087.708,4104.018Z" transform="translate(1146.398 -4101.266)" fill="#fff"/>
              </g>
              <g id="Group_1575" data-name="Group 1575" transform="translate(402.537 13.35)">
                <path id="Path_925" data-name="Path 925" d="M-501.826,3922.077A23.766,23.766,0,0,1-499.211,3933v1.218q-21.8,19.928-30.067,57.047c-.394,1.792-.764,3.631-1.135,5.516-.81,4.367-1.5,8.871-2.06,13.56-.532,4.5-.926,8.987-1.158,13.377v.023c-.185,3.1-.324,6.161-.37,9.171-.047,1.862-.07,3.724-.07,5.54,0,1.149,0,2.274.023,3.379a308.453,308.453,0,0,0,3.935,45.554c.509,2.989.833,4.689.856,4.758a5.5,5.5,0,0,1-4.3,6.5,5.537,5.537,0,0,1-6.551-4.275c-.07-.345-.486-2.367-1.042-5.769a304.868,304.868,0,0,1-3.911-41.74c-.139-4.55-.162-9.331-.047-14.226.185-7.585.671-15.514,1.62-23.559C-538.814,3969.632-524.625,3940.258-501.826,3922.077Z" transform="translate(545.184 -3922.077)" fill="#fff"/>
              </g>
              <g id="Group_1576" data-name="Group 1576" transform="translate(337.761 124.165)">
                <path id="Path_926" data-name="Path 926" d="M-603.325,4443.825l6.2-22.822v21.145l-.694,2.6-18.726,69.044-.486,1.77a2.76,2.76,0,0,1-1.782,1.885l-1.412.482-34.835,11.744-43.539,14.687-5.6,1.884a2.771,2.771,0,0,1-3.519-1.723,2.743,2.743,0,0,1,1.736-3.494l4.953-1.677,42.891-14.458,32.613-10.986,3.519-1.2.694-2.551Z" transform="translate(707.871 -4333.165)" fill="#fff"/>
                <path id="Path_927" data-name="Path 927" d="M-512.089,4203.488a40.282,40.282,0,0,1,9.768,5.563,41.159,41.159,0,0,1,7.36,7.355.3.3,0,0,1,.116.139l-.116.666v9.331c-.208-.368-.393-.735-.6-1.1a5.651,5.651,0,0,0-.3-.482.175.175,0,0,0-.047-.115,38.014,38.014,0,0,0-9.768-11.4,35.942,35.942,0,0,0-16.388-6.988,42.4,42.4,0,0,0-7.754-.5,35.435,35.435,0,0,0-4.977.436,2.752,2.752,0,0,1-3.264-2.114,2.74,2.74,0,0,1,2.129-3.265,33.892,33.892,0,0,1,6.181-.6A45.091,45.091,0,0,1-512.089,4203.488Z" transform="translate(605.71 -4200.395)" fill="#fff"/>
              </g>
              <g id="Group_1577" data-name="Group 1577" transform="translate(409.462 82.532)">
                <path id="Path_928" data-name="Path 928" d="M-525.036,4095.833h36.294v5.517h-36.294a2.761,2.761,0,0,1-2.754-2.782A2.752,2.752,0,0,1-525.036,4095.833Z" transform="translate(527.79 -4095.833)" fill="#fff"/>
              </g>
              <g id="Group_1578" data-name="Group 1578" transform="translate(33.433 193.815)">
                <path id="Path_929" data-name="Path 929" d="M-1466.7,4377.629l.357,2.177,10.35,63.624,1.352,8.349v.016l5.626,34.565.979,6.019,4.693,28.826.886,5.479,1.181,7.221a4.09,4.09,0,0,1,.031.432h-5.595l-1.507-9.336-11.407-70.106-.886-5.493-10.972-67.452-.559-3.441a2.759,2.759,0,0,1,2.3-3.148A2.76,2.76,0,0,1-1466.7,4377.629Z" transform="translate(1472.204 -4375.324)" fill="#fff"/>
              </g>
              <g id="Group_1579" data-name="Group 1579" transform="translate(236.821 191.058)">
                <path id="Path_930" data-name="Path 930" d="M-863.717,4488.4a5.507,5.507,0,0,1-3.871,5.245c-.628.2-63.184,19.1-87.282-39.525s26.331-84.864,26.844-85.123a5.56,5.56,0,0,1,7.45,2.415,5.482,5.482,0,0,1-2.433,7.4c-1.7.872-41.779,22.056-21.6,71.15,8.5,20.683,23.389,32.553,44.248,35.281a76.459,76.459,0,0,0,29.427-2.089,5.549,5.549,0,0,1,6.956,3.585A5.428,5.428,0,0,1-863.717,4488.4Z" transform="translate(961.387 -4368.401)" fill="#fff"/>
              </g>
              <g id="Group_1580" data-name="Group 1580" transform="translate(51.814 208.321)">
                <path id="Path_931" data-name="Path 931" d="M-1228.5,4473.168a2.739,2.739,0,0,1-1.014,2.129,2.784,2.784,0,0,1-3.9-.384l-46.81-56.7-141.474,97.077a2.782,2.782,0,0,1-3.855-.7,2.738,2.738,0,0,1,.7-3.827l143.574-98.519a2.785,2.785,0,0,1,3.719.52l48.427,58.661A2.729,2.729,0,0,1-1228.5,4473.168Z" transform="translate(1426.041 -4411.757)" fill="#fff"/>
              </g>
              <g id="Group_1581" data-name="Group 1581" transform="translate(83.377 204.805)">
                <path id="Path_932" data-name="Path 932" d="M-1301,4458.45a2.744,2.744,0,0,1-1.1,2.2,2.784,2.784,0,0,1-3.882-.535l-40.225-52.774a2.74,2.74,0,0,1,.537-3.854,2.784,2.784,0,0,1,3.882.533l40.225,52.774A2.738,2.738,0,0,1-1301,4458.45Z" transform="translate(1346.769 -4402.927)" fill="#fff"/>
              </g>
              <g id="Group_1582" data-name="Group 1582" transform="translate(57.256 287.387)">
                <path id="Path_933" data-name="Path 933" d="M-1379.014,4634.927a32.847,32.847,0,0,1-4.166,16.585c-8.177,14.307-25.27,17.1-25.994,17.216a2.769,2.769,0,0,1-3.164-2.3,2.753,2.753,0,0,1,2.307-3.142c.171-.028,15.236-2.551,22.054-14.534,4.952-8.7,4.52-20.358-1.287-34.64a2.741,2.741,0,0,1,1.531-3.582,2.777,2.777,0,0,1,3.607,1.52C-1380.718,4620.433-1379.014,4628.075-1379.014,4634.927Z" transform="translate(1412.372 -4610.333)" fill="#fff"/>
              </g>
              <g id="Group_1583" data-name="Group 1583" transform="translate(97.744 275.322)">
                <path id="Path_934" data-name="Path 934" d="M-1305.217,4582.156l.435,1.82,6.154,26.218,1.275,5.385,3.232,13.766,1.259,5.4,5.222,22.174a2.108,2.108,0,0,1,.078.617h-5.626l-5.641-24.011c-.015-.062-.015-.108-.031-.154l-10.816-46.033-.933-3.936a2.721,2.721,0,0,1,1.2-2.932,2.906,2.906,0,0,1,.87-.371A2.768,2.768,0,0,1-1305.217,4582.156Z" transform="translate(1310.686 -4580.031)" fill="#fff"/>
              </g>
              <g id="Group_1584" data-name="Group 1584" transform="translate(106.537 231.193)">
                <path id="Path_935" data-name="Path 935" d="M-1215.47,4495.123c0,5.5-7.131,9.922-14.064,14.221-5.891,3.655-13.214,8.207-12.34,11.511,3.228,12.083-32.165,24.725-43.089,28.31a2.776,2.776,0,0,1-3.5-1.748,2.756,2.756,0,0,1,1.762-3.477c22.169-7.278,40.586-17.413,39.471-21.675-1.929-7.236,6.555-12.5,14.761-17.588,5.248-3.254,12.444-7.717,11.267-10.253-4.243-9.225-11.4-20.925-11.475-21.042a2.745,2.745,0,0,1,.926-3.78,2.782,2.782,0,0,1,3.808.918c.3.49,7.4,12.092,11.783,21.619A7.09,7.09,0,0,1-1215.47,4495.123Z" transform="translate(1288.601 -4469.2)" fill="#fff"/>
              </g>
              <g id="Group_1585" data-name="Group 1585" transform="translate(283.648 308.302)">
                <path id="Path_936" data-name="Path 936" d="M-838.272,4665.152l1.228,7.068,6.014,34.7a2.343,2.343,0,0,1,.047.463h-5.579l-6.372-36.7-.808-4.614a2.78,2.78,0,0,1,2.269-3.18A2.787,2.787,0,0,1-838.272,4665.152Z" transform="translate(843.78 -4662.861)" fill="#fff"/>
              </g>
              <g id="Group_1586" data-name="Group 1586" transform="translate(197.994 300.887)">
                <path id="Path_937" data-name="Path 937" d="M-983.794,4645.4a2.77,2.77,0,0,1,.512,1.589,2.727,2.727,0,0,1-1.181,2.253l-3.963,2.793-40,28.07a2.181,2.181,0,0,1-.389.278l-22.5,15.8h-7.584a2.743,2.743,0,0,1,1.181-2.237l21.244-14.923,5.672-3.981,37.67-26.449,5.486-3.843A2.778,2.778,0,0,1-983.794,4645.4Z" transform="translate(1058.902 -4644.24)" fill="#fff"/>
              </g>
              <g id="Group_1587" data-name="Group 1587" transform="translate(109.539 277.874)">
                <path id="Path_938" data-name="Path 938" d="M-1136.635,4589.192a2.755,2.755,0,0,1-1.867,2.6l-138.882,47.609a2.776,2.776,0,0,1-3.523-1.7,2.746,2.746,0,0,1,1.715-3.5l138.882-47.609a2.776,2.776,0,0,1,3.524,1.7A2.749,2.749,0,0,1-1136.635,4589.192Z" transform="translate(1281.06 -4586.441)" fill="#fff"/>
              </g>
              <g id="Group_1588" data-name="Group 1588" transform="translate(201.263 293.479)">
                <path id="Path_939" data-name="Path 939" d="M-1022.506,4666.794a2.725,2.725,0,0,1-.036.44,2.763,2.763,0,0,1-3.164,2.281c-.537-.085-13.228-2.187-20.358-13-4.963-7.519-5.939-17.217-2.9-28.824a2.772,2.772,0,0,1,3.378-1.973,2.75,2.75,0,0,1,1.985,3.355c-2.616,10.017-1.9,18.22,2.143,24.381,5.75,8.766,16.518,10.6,16.625,10.622A2.763,2.763,0,0,1-1022.506,4666.794Z" transform="translate(1050.692 -4625.635)" fill="#fff"/>
              </g>
              <g id="Group_1589" data-name="Group 1589" transform="translate(156.505 309.384)">
                <path id="Path_940" data-name="Path 940" d="M-1157.653,4667.622l.668,2.485,10.273,38.208a2.785,2.785,0,0,1,.093.71h-5.625l-9.993-37.128-.777-2.854a2.761,2.761,0,0,1,1.523-3.21,4.01,4.01,0,0,1,.451-.154A2.759,2.759,0,0,1-1157.653,4667.622Z" transform="translate(1163.104 -4665.58)" fill="#fff"/>
              </g>
            </g>
          </g>
        </g>
      </g>
      <rect id="Rectangle_765" data-name="Rectangle 765" width="443.154" height="158.269" rx="17.952" transform="translate(2.836 125.862)" fill="none"/>
    </g>
    <g id="Group_1759" data-name="Group 1759" transform="translate(103.259 25.424)">
      <path id="Icon_material-location-on" data-name="Icon material-location-on" d="M23.776,3A16.265,16.265,0,0,0,7.5,19.276C7.5,31.484,23.776,49.5,23.776,49.5s16.276-18.02,16.276-30.228A16.265,16.265,0,0,0,23.776,3Zm0,22.09a5.813,5.813,0,1,1,5.813-5.813A5.815,5.815,0,0,1,23.776,25.09Z" transform="translate(102.519 112.16)" fill="#f84343"/>
      <path id="Icon_material-location-on-2" data-name="Icon material-location-on" d="M23.776,3A16.265,16.265,0,0,0,7.5,19.276C7.5,31.484,23.776,49.5,23.776,49.5s16.276-18.02,16.276-30.228A16.265,16.265,0,0,0,23.776,3Zm0,22.09a5.813,5.813,0,1,1,5.813-5.813A5.815,5.815,0,0,1,23.776,25.09Z" transform="translate(211.509 -3)" fill="#f84343"/>
      <path id="Icon_material-location-on-3" data-name="Icon material-location-on" d="M23.776,3A16.265,16.265,0,0,0,7.5,19.276C7.5,31.484,23.776,49.5,23.776,49.5s16.276-18.02,16.276-30.228A16.265,16.265,0,0,0,23.776,3Zm0,22.09a5.813,5.813,0,1,1,5.813-5.813A5.815,5.815,0,0,1,23.776,25.09Z" transform="translate(-7.5 247.884)" fill="#f84343"/>
      <path id="Icon_material-location-on-4" data-name="Icon material-location-on" d="M23.776,3A16.265,16.265,0,0,0,7.5,19.276C7.5,31.484,23.776,49.5,23.776,49.5s16.276-18.02,16.276-30.228A16.265,16.265,0,0,0,23.776,3Zm0,22.09a5.813,5.813,0,1,1,5.813-5.813A5.815,5.815,0,0,1,23.776,25.09Z" transform="translate(201.959 209.697)" fill="#f84343"/>
    </g>
  </g>
</svg>
