<svg xmlns="http://www.w3.org/2000/svg" width="659.319" height="286.515" viewBox="0 0 659.319 286.515">
  <g id="long" transform="translate(-307.582 -399.128)">
    <rect id="Rectangle_1715" data-name="Rectangle 1715" width="441.176" height="94.118" transform="translate(525.725 509.217)" fill="#f5f5f5"/>
    <line id="Line_2638" data-name="Line 2638" x2="494.819" transform="translate(443.535 526.77)" fill="none" stroke="#4e5055" stroke-linecap="square" stroke-miterlimit="10" stroke-width="4"/>
    <line id="Line_2639" data-name="Line 2639" x2="494.819" transform="translate(443.535 581.922)" fill="none" stroke="#4e5055" stroke-linecap="square" stroke-miterlimit="10" stroke-width="4"/>
    <line id="Line_2640" data-name="Line 2640" x2="494.819" transform="translate(443.535 568.926)" fill="none" stroke="#4e5055" stroke-linecap="square" stroke-miterlimit="10" stroke-width="4"/>
    <line id="Line_2641" data-name="Line 2641" x2="494.819" transform="translate(443.535 541.529)" fill="none" stroke="#4e5055" stroke-linecap="square" stroke-miterlimit="10" stroke-width="4"/>
    <line id="Line_2642" data-name="Line 2642" y2="65.846" transform="translate(537.313 521.32)" fill="none" stroke="#4e5055" stroke-linecap="round" stroke-miterlimit="10" stroke-width="4"/>
    <line id="Line_2643" data-name="Line 2643" y2="65.846" transform="translate(558.332 521.32)" fill="none" stroke="#4e5055" stroke-linecap="round" stroke-miterlimit="10" stroke-width="4"/>
    <line id="Line_2644" data-name="Line 2644" y2="65.846" transform="translate(579.352 521.32)" fill="none" stroke="#4e5055" stroke-linecap="round" stroke-miterlimit="10" stroke-width="4"/>
    <line id="Line_2645" data-name="Line 2645" y2="65.846" transform="translate(600.371 521.32)" fill="none" stroke="#4e5055" stroke-linecap="round" stroke-miterlimit="10" stroke-width="4"/>
    <line id="Line_2646" data-name="Line 2646" y2="65.846" transform="translate(621.393 521.32)" fill="none" stroke="#4e5055" stroke-linecap="round" stroke-miterlimit="10" stroke-width="4"/>
    <line id="Line_2647" data-name="Line 2647" y2="65.846" transform="translate(642.414 521.32)" fill="none" stroke="#4e5055" stroke-linecap="round" stroke-miterlimit="10" stroke-width="4"/>
    <line id="Line_2648" data-name="Line 2648" y2="65.846" transform="translate(663.434 521.32)" fill="none" stroke="#4e5055" stroke-linecap="round" stroke-miterlimit="10" stroke-width="4"/>
    <line id="Line_2680" data-name="Line 2680" y2="65.846" transform="translate(684.453 521.32)" fill="none" stroke="#4e5055" stroke-linecap="round" stroke-miterlimit="10" stroke-width="4"/>
    <line id="Line_2681" data-name="Line 2681" y2="65.846" transform="translate(720.727 521.32)" fill="none" stroke="#4e5055" stroke-linecap="round" stroke-miterlimit="10" stroke-width="4"/>
    <line id="Line_2692" data-name="Line 2692" y2="65.846" transform="translate(756.996 521.32)" fill="none" stroke="#4e5055" stroke-linecap="round" stroke-miterlimit="10" stroke-width="4"/>
    <line id="Line_2693" data-name="Line 2693" y2="65.846" transform="translate(793.27 521.32)" fill="none" stroke="#4e5055" stroke-linecap="round" stroke-miterlimit="10" stroke-width="4"/>
    <line id="Line_2694" data-name="Line 2694" y2="65.846" transform="translate(829.539 521.32)" fill="none" stroke="#4e5055" stroke-linecap="round" stroke-miterlimit="10" stroke-width="4"/>
    <line id="Line_2695" data-name="Line 2695" y2="65.846" transform="translate(865.813 521.32)" fill="none" stroke="#4e5055" stroke-linecap="round" stroke-miterlimit="10" stroke-width="4"/>
    <line id="Line_2701" data-name="Line 2701" y2="65.846" transform="translate(902.084 521.32)" fill="none" stroke="#4e5055" stroke-linecap="round" stroke-miterlimit="10" stroke-width="4"/>
    <line id="Line_2703" data-name="Line 2703" y2="65.846" transform="translate(938.355 521.32)" fill="none" stroke="#4e5055" stroke-linecap="round" stroke-miterlimit="10" stroke-width="4"/>
    <line id="Line_2649" data-name="Line 2649" x2="21.02" y2="65.846" transform="translate(537.313 521.32)" fill="none" stroke="#4e5055" stroke-linecap="round" stroke-miterlimit="10" stroke-width="4"/>
    <line id="Line_2650" data-name="Line 2650" x2="21.02" y2="65.846" transform="translate(558.332 521.32)" fill="none" stroke="#4e5055" stroke-linecap="round" stroke-miterlimit="10" stroke-width="4"/>
    <line id="Line_2651" data-name="Line 2651" x2="21.02" y2="65.846" transform="translate(579.352 521.32)" fill="none" stroke="#4e5055" stroke-linecap="round" stroke-miterlimit="10" stroke-width="4"/>
    <line id="Line_2652" data-name="Line 2652" x2="21.02" y2="65.846" transform="translate(600.371 521.32)" fill="none" stroke="#4e5055" stroke-linecap="round" stroke-miterlimit="10" stroke-width="4"/>
    <line id="Line_2653" data-name="Line 2653" x2="21.02" y2="65.846" transform="translate(621.393 521.32)" fill="none" stroke="#4e5055" stroke-linecap="round" stroke-miterlimit="10" stroke-width="4"/>
    <line id="Line_2654" data-name="Line 2654" x2="21.02" y2="65.846" transform="translate(642.414 521.32)" fill="none" stroke="#4e5055" stroke-linecap="round" stroke-miterlimit="10" stroke-width="4"/>
    <line id="Line_2655" data-name="Line 2655" x2="21.02" y2="65.846" transform="translate(663.434 521.32)" fill="none" stroke="#4e5055" stroke-linecap="round" stroke-miterlimit="10" stroke-width="4"/>
    <line id="Line_2682" data-name="Line 2682" x2="36.272" y2="65.846" transform="translate(684.453 521.32)" fill="none" stroke="#4e5055" stroke-linecap="round" stroke-miterlimit="10" stroke-width="4"/>
    <line id="Line_2683" data-name="Line 2683" x2="36.272" y2="65.846" transform="translate(720.727 521.32)" fill="none" stroke="#4e5055" stroke-linecap="round" stroke-miterlimit="10" stroke-width="4"/>
    <line id="Line_2696" data-name="Line 2696" x2="36.272" y2="65.846" transform="translate(756.996 521.32)" fill="none" stroke="#4e5055" stroke-linecap="round" stroke-miterlimit="10" stroke-width="4"/>
    <line id="Line_2697" data-name="Line 2697" x2="36.272" y2="65.846" transform="translate(793.27 521.32)" fill="none" stroke="#4e5055" stroke-linecap="round" stroke-miterlimit="10" stroke-width="4"/>
    <line id="Line_2698" data-name="Line 2698" x2="36.272" y2="65.846" transform="translate(829.539 521.32)" fill="none" stroke="#4e5055" stroke-linecap="round" stroke-miterlimit="10" stroke-width="4"/>
    <line id="Line_2699" data-name="Line 2699" x2="36.272" y2="65.846" transform="translate(865.813 521.32)" fill="none" stroke="#4e5055" stroke-linecap="round" stroke-miterlimit="10" stroke-width="4"/>
    <line id="Line_2702" data-name="Line 2702" x2="36.272" y2="65.846" transform="translate(902.084 521.32)" fill="none" stroke="#4e5055" stroke-linecap="round" stroke-miterlimit="10" stroke-width="4"/>
    <line id="Line_2656" data-name="Line 2656" x2="498.366" transform="translate(441.533 447.832)" fill="none" stroke="#c3c3c3" stroke-linecap="round" stroke-miterlimit="10" stroke-width="0.5"/>
    <line id="Line_2657" data-name="Line 2657" x2="147.143" transform="translate(537.313 488.311)" fill="none" stroke="#c3c3c3" stroke-linecap="round" stroke-miterlimit="10" stroke-width="0.5"/>
    <line id="Line_2658" data-name="Line 2658" x2="93.775" transform="translate(441.986 488.145)" fill="none" stroke="#c3c3c3" stroke-miterlimit="10" stroke-width="0.5"/>
    <line id="Line_2659" data-name="Line 2659" x2="21.02" transform="translate(537.313 621.943)" fill="none" stroke="#161615" stroke-miterlimit="10" stroke-width="0.1"/>
    <line id="Line_2660" data-name="Line 2660" y2="11.193" transform="translate(388.605 571.451)" fill="none" stroke="#161615" stroke-miterlimit="10" stroke-width="0.1"/>
    <line id="Line_2684" data-name="Line 2684" x2="253.901" transform="translate(686.453 488.311)" fill="none" stroke="#c3c3c3" stroke-linecap="round" stroke-miterlimit="10" stroke-width="0.5"/>
    <line id="Line_2661" data-name="Line 2661" y2="83.91" transform="translate(441.535 440.48)" fill="none" stroke="#c3c3c3" stroke-miterlimit="10" stroke-width="0.5"/>
    <line id="Line_2704" data-name="Line 2704" y2="90.91" transform="translate(940.355 440.48)" fill="none" stroke="#c3c3c3" stroke-linecap="round" stroke-miterlimit="10" stroke-width="0.5"/>
    <line id="Line_2685" data-name="Line 2685" y2="38.379" transform="translate(684.453 488.391)" fill="none" stroke="#959dac" stroke-linecap="round" stroke-miterlimit="10" stroke-width="0.5"/>
    <line id="Line_2662" data-name="Line 2662" y2="64.533" transform="translate(537.313 462.236)" fill="none" stroke="#c3c3c3" stroke-miterlimit="10" stroke-width="0.5"/>
    <line id="Line_2663" data-name="Line 2663" x1="6.927" y2="17.472" transform="translate(438.072 479.574)" fill="none" stroke="#c3c3c3" stroke-miterlimit="10" stroke-width="0.5"/>
    <line id="Line_2664" data-name="Line 2664" x1="6.927" y2="17.472" transform="translate(438.07 439.48)" fill="none" stroke="#c3c3c3" stroke-miterlimit="10" stroke-width="0.5"/>
    <line id="Line_2665" data-name="Line 2665" x1="6.927" y2="17.472" transform="translate(533.848 479.574)" fill="none" stroke="#c3c3c3" stroke-miterlimit="10" stroke-width="0.5"/>
    <line id="Line_2666" data-name="Line 2666" x1="6.927" y2="17.472" transform="translate(533.848 613.207)" fill="none" stroke="#161615" stroke-miterlimit="10" stroke-width="0.1"/>
    <line id="Line_2667" data-name="Line 2667" x1="6.927" y2="17.472" transform="translate(397.34 568.158) rotate(90)" fill="none" stroke="#161615" stroke-miterlimit="10" stroke-width="0.1"/>
    <line id="Line_2668" data-name="Line 2668" x1="6.927" y2="17.472" transform="translate(554.867 613.207)" fill="none" stroke="#161615" stroke-miterlimit="10" stroke-width="0.1"/>
    <line id="Line_2669" data-name="Line 2669" x1="6.927" y2="17.472" transform="translate(397.34 579.18) rotate(90)" fill="none" stroke="#161615" stroke-miterlimit="10" stroke-width="0.1"/>
    <line id="Line_2686" data-name="Line 2686" x1="6.927" y2="17.472" transform="translate(680.963 613.207)" fill="none" stroke="#161615" stroke-miterlimit="10" stroke-width="0.1"/>
    <line id="Line_2687" data-name="Line 2687" x1="6.927" y2="17.472" transform="translate(717.262 613.207)" fill="none" stroke="#161615" stroke-miterlimit="10" stroke-width="0.1"/>
    <line id="Line_2688" data-name="Line 2688" x1="6.927" y2="17.472" transform="translate(680.99 479.576)" fill="none" stroke="#959dac" stroke-linecap="round" stroke-miterlimit="10" stroke-width="0.5"/>
    <line id="Line_2705" data-name="Line 2705" x1="6.927" y2="17.472" transform="translate(936.891 479.654)" fill="none" stroke="#c3c3c3" stroke-linecap="round" stroke-miterlimit="10" stroke-width="0.5"/>
    <line id="Line_2706" data-name="Line 2706" x1="6.927" y2="17.472" transform="translate(936.891 439.096)" fill="none" stroke="#c3c3c3" stroke-linecap="round" stroke-miterlimit="10" stroke-width="0.5"/>
    <line id="Line_2670" data-name="Line 2670" y2="43.241" transform="translate(537.313 587.166)" fill="none" stroke="#161615" stroke-miterlimit="10" stroke-width="0.1"/>
    <line id="Line_2671" data-name="Line 2671" y2="64.394" transform="translate(444.535 571.623) rotate(90)" fill="none" stroke="#161615" stroke-miterlimit="10" stroke-width="0.1"/>
    <line id="Line_2672" data-name="Line 2672" y2="43.241" transform="translate(558.332 587.166)" fill="none" stroke="#161615" stroke-miterlimit="10" stroke-width="0.1"/>
    <line id="Line_2673" data-name="Line 2673" y2="64.394" transform="translate(444.535 582.643) rotate(90)" fill="none" stroke="#161615" stroke-miterlimit="10" stroke-width="0.1"/>
    <line id="Line_2689" data-name="Line 2689" x2="36.272" transform="translate(684.453 621.943)" fill="none" stroke="#161615" stroke-miterlimit="10" stroke-width="0.1"/>
    <line id="Line_2690" data-name="Line 2690" y2="43.434" transform="translate(684.453 587.166)" fill="none" stroke="#161615" stroke-miterlimit="10" stroke-width="0.1"/>
    <line id="Line_2691" data-name="Line 2691" y2="43.434" transform="translate(720.727 587.166)" fill="none" stroke="#161615" stroke-miterlimit="10" stroke-width="0.1"/>
    <text id="_1200" data-name="1200" transform="translate(765.484 463.439)" fill="#161615" stroke="#161615" stroke-miterlimit="10" stroke-width="0.3" font-size="20" font-family="SegoeUI, Segoe UI"><tspan x="-21.563" y="22">1200</tspan></text>
    <text id="_25" data-name="25" transform="translate(313.736 568.623)" fill="#161615" stroke="#161615" stroke-miterlimit="10" stroke-width="0.3" font-size="20" font-family="SegoeUI, Segoe UI"><tspan x="15.432" y="22">25</tspan></text>
    <text id="_2" data-name="@2" transform="translate(676.377 634.939)" fill="#161615" stroke="#161615" stroke-miterlimit="10" stroke-width="0.3" font-size="20" font-family="SegoeUI, Segoe UI"><tspan x="7.233" y="22">@2</tspan></text>
    <text id="_20" data-name="20" transform="translate(468.291 461.746)" fill="#161615" stroke="#161615" stroke-miterlimit="10" stroke-width="0.3" font-size="20" font-family="SegoeUI, Segoe UI"><tspan x="6.932" y="22">20</tspan></text>
    <text id="_200" data-name="
200" transform="translate(585.273 444.842)" fill="#161615" stroke="#161615" stroke-miterlimit="10" stroke-width="0.3" font-size="20" font-family="SegoeUI, Segoe UI"><tspan x="26.213" y="22"></tspan><tspan x="10.041" y="42">200</tspan></text>
    <line id="Line_2674" data-name="Line 2674" y1="6.06" transform="translate(443.535 575.391)" fill="none" stroke="#4e5055" stroke-linecap="square" stroke-width="4"/>
    <line id="Line_2675" data-name="Line 2675" y1="7.06" transform="translate(443.535 561.391)" fill="none" stroke="#4e5055" stroke-linecap="square" stroke-width="4"/>
    <line id="Line_2676" data-name="Line 2676" y1="7.861" transform="translate(443.535 541.529)" fill="none" stroke="#4e5055" stroke-linecap="square" stroke-width="4"/>
    <line id="Line_2677" data-name="Line 2677" x1="0.096" y1="5.506" transform="translate(443.439 526.77)" fill="none" stroke="#4e5055" stroke-linecap="square" stroke-width="4"/>
    <g id="Component_29_46" data-name="Component 29 – 46" transform="translate(657.582 414.891)">
      <g id="Path_981" data-name="Path 981" fill="none">
        <path d="M8,0H60a8,8,0,0,1,8,8V20a8,8,0,0,1-8,8H8a8,8,0,0,1-8-8V8A8,8,0,0,1,8,0Z" stroke="none"/>
        <path d="M 8 1 C 4.140190124511719 1 1 4.140190124511719 1 8 L 1 20 C 1 23.85980987548828 4.140190124511719 27 8 27 L 60 27 C 63.85980987548828 27 67 23.85980987548828 67 20 L 67 8 C 67 4.140190124511719 63.85980987548828 1 60 1 L 8 1 M 8 0 L 60 0 C 64.41828155517578 0 68 3.581720352172852 68 8 L 68 20 C 68 24.41827964782715 64.41828155517578 28 60 28 L 8 28 C 3.581718444824219 28 0 24.41827964782715 0 20 L 0 8 C 0 3.581720352172852 3.581718444824219 0 8 0 Z" stroke="none" fill="#2bc454"/>
      </g>
    </g>
    <g id="Component_29_47" data-name="Component 29 – 47" transform="translate(513.582 652.891)">
      <g id="Path_981-2" data-name="Path 981" fill="none">
        <path d="M8,0H60a8,8,0,0,1,8,8V20a8,8,0,0,1-8,8H8a8,8,0,0,1-8-8V8A8,8,0,0,1,8,0Z" stroke="none"/>
        <path d="M 8 1 C 4.140190124511719 1 1 4.140190124511719 1 8 L 1 20 C 1 23.85980987548828 4.140190124511719 27 8 27 L 60 27 C 63.85980987548828 27 67 23.85980987548828 67 20 L 67 8 C 67 4.140190124511719 63.85980987548828 1 60 1 L 8 1 M 8 0 L 60 0 C 64.41828155517578 0 68 3.581720352172852 68 8 L 68 20 C 68 24.41827964782715 64.41828155517578 28 60 28 L 8 28 C 3.581718444824219 28 0 24.41827964782715 0 20 L 0 8 C 0 3.581720352172852 3.581718444824219 0 8 0 Z" stroke="none" fill="#2bc454"/>
      </g>
    </g>
    <text id="_1_420" data-name="
1,420" transform="translate(659.082 399.428)" fill="#161615" stroke="#161615" stroke-miterlimit="10" stroke-width="0.3" font-size="20" font-family="SegoeUI, Segoe UI"><tspan x="32.131" y="22"></tspan><tspan x="8.4" y="44">1,420</tspan></text>
    <text id="_1_10" data-name="@1
10" transform="translate(523.865 634.939)" fill="#161615" stroke="#161615" stroke-miterlimit="10" stroke-width="0.3" font-size="20" font-family="SegoeUI, Segoe UI"><tspan x="9.017" y="22">@1</tspan></text>
    <g id="Component_29_48" data-name="Component 29 – 48" transform="translate(769.582 457.936)">
      <g id="Path_981-3" data-name="Path 981" fill="none">
        <path d="M8,0H60a8,8,0,0,1,8,8V20a8,8,0,0,1-8,8H8a8,8,0,0,1-8-8V8A8,8,0,0,1,8,0Z" stroke="none"/>
        <path d="M 8 1 C 4.140190124511719 1 1 4.140190124511719 1 8 L 1 20 C 1 23.85980987548828 4.140190124511719 27 8 27 L 60 27 C 63.85980987548828 27 67 23.85980987548828 67 20 L 67 8 C 67 4.140190124511719 63.85980987548828 1 60 1 L 8 1 M 8 0 L 60 0 C 64.41828155517578 0 68 3.581720352172852 68 8 L 68 20 C 68 24.41827964782715 64.41828155517578 28 60 28 L 8 28 C 3.581718444824219 28 0 24.41827964782715 0 20 L 0 8 C 0 3.581720352172852 3.581718444824219 0 8 0 Z" stroke="none" fill="#2bc454"/>
      </g>
    </g>
    <g id="Component_29_49" data-name="Component 29 – 49" transform="translate(576.884 457.936)">
      <g id="Path_981-4" data-name="Path 981" fill="none">
        <path d="M8,0H60a8,8,0,0,1,8,8V20a8,8,0,0,1-8,8H8a8,8,0,0,1-8-8V8A8,8,0,0,1,8,0Z" stroke="none"/>
        <path d="M 8 1 C 4.140190124511719 1 1 4.140190124511719 1 8 L 1 20 C 1 23.85980987548828 4.140190124511719 27 8 27 L 60 27 C 63.85980987548828 27 67 23.85980987548828 67 20 L 67 8 C 67 4.140190124511719 63.85980987548828 1 60 1 L 8 1 M 8 0 L 60 0 C 64.41828155517578 0 68 3.581720352172852 68 8 L 68 20 C 68 24.41827964782715 64.41828155517578 28 60 28 L 8 28 C 3.581718444824219 28 0 24.41827964782715 0 20 L 0 8 C 0 3.581720352172852 3.581718444824219 0 8 0 Z" stroke="none" fill="#2bc454"/>
      </g>
    </g>
    <g id="Component_29_50" data-name="Component 29 – 50" transform="translate(452.003 457.936)">
      <g id="Path_981-5" data-name="Path 981" fill="none">
        <path d="M8,0H60a8,8,0,0,1,8,8V20a8,8,0,0,1-8,8H8a8,8,0,0,1-8-8V8A8,8,0,0,1,8,0Z" stroke="none"/>
        <path d="M 8 1 C 4.140190124511719 1 1 4.140190124511719 1 8 L 1 20 C 1 23.85980987548828 4.140190124511719 27 8 27 L 60 27 C 63.85980987548828 27 67 23.85980987548828 67 20 L 67 8 C 67 4.140190124511719 63.85980987548828 1 60 1 L 8 1 M 8 0 L 60 0 C 64.41828155517578 0 68 3.581720352172852 68 8 L 68 20 C 68 24.41827964782715 64.41828155517578 28 60 28 L 8 28 C 3.581718444824219 28 0 24.41827964782715 0 20 L 0 8 C 0 3.581720352172852 3.581718444824219 0 8 0 Z" stroke="none" fill="#2bc454"/>
      </g>
    </g>
    <g id="Component_29_51" data-name="Component 29 – 51" transform="translate(307.582 563.048)">
      <g id="Path_981-6" data-name="Path 981" fill="none">
        <path d="M8,0H60a8,8,0,0,1,8,8V20a8,8,0,0,1-8,8H8a8,8,0,0,1-8-8V8A8,8,0,0,1,8,0Z" stroke="none"/>
        <path d="M 8 1 C 4.140190124511719 1 1 4.140190124511719 1 8 L 1 20 C 1 23.85980987548828 4.140190124511719 27 8 27 L 60 27 C 63.85980987548828 27 67 23.85980987548828 67 20 L 67 8 C 67 4.140190124511719 63.85980987548828 1 60 1 L 8 1 M 8 0 L 60 0 C 64.41828155517578 0 68 3.581720352172852 68 8 L 68 20 C 68 24.41827964782715 64.41828155517578 28 60 28 L 8 28 C 3.581718444824219 28 0 24.41827964782715 0 20 L 0 8 C 0 3.581720352172852 3.581718444824219 0 8 0 Z" stroke="none" fill="#2bc454"/>
      </g>
    </g>
    <g id="Component_29_52" data-name="Component 29 – 52" transform="translate(664.551 657.643)">
      <g id="Path_981-7" data-name="Path 981" fill="none">
        <path d="M8,0H60a8,8,0,0,1,8,8V20a8,8,0,0,1-8,8H8a8,8,0,0,1-8-8V8A8,8,0,0,1,8,0Z" stroke="none"/>
        <path d="M 8 1 C 4.140190124511719 1 1 4.140190124511719 1 8 L 1 20 C 1 23.85980987548828 4.140190124511719 27 8 27 L 60 27 C 63.85980987548828 27 67 23.85980987548828 67 20 L 67 8 C 67 4.140190124511719 63.85980987548828 1 60 1 L 8 1 M 8 0 L 60 0 C 64.41828155517578 0 68 3.581720352172852 68 8 L 68 20 C 68 24.41827964782715 64.41828155517578 28 60 28 L 8 28 C 3.581718444824219 28 0 24.41827964782715 0 20 L 0 8 C 0 3.581720352172852 3.581718444824219 0 8 0 Z" stroke="none" fill="#2bc454"/>
      </g>
    </g>
  </g>
</svg>
