<svg xmlns="http://www.w3.org/2000/svg" width="548.87" height="328.323" viewBox="0 0 548.87 328.323">
  <g id="Group_4170" data-name="Group 4170" transform="translate(-841.86 -318.138)">
    <line id="Line_479" data-name="Line 479" y2="22.983" transform="translate(1025.117 420.659)" fill="none" stroke="#959dac" stroke-miterlimit="10" stroke-width="0.5"/>
    <line id="Line_480" data-name="Line 480" y2="22.983" transform="translate(1206.181 420.659)" fill="none" stroke="#959dac" stroke-miterlimit="10" stroke-width="0.5"/>
    <line id="Line_481" data-name="Line 481" y2="88.886" transform="translate(1007.589 377.182)" fill="none" stroke="#959dac" stroke-miterlimit="10" stroke-width="0.5"/>
    <line id="Line_482" data-name="Line 482" y2="88.886" transform="translate(1225.642 377.182)" fill="none" stroke="#959dac" stroke-miterlimit="10" stroke-width="0.5"/>
    <line id="Line_483" data-name="Line 483" x2="218.053" transform="translate(1007.589 420.659)" fill="none" stroke="#959dac" stroke-miterlimit="10" stroke-width="0.5"/>
    <line id="Line_484" data-name="Line 484" x2="218.053" transform="translate(1007.589 391.649)" fill="none" stroke="#959dac" stroke-miterlimit="10" stroke-width="0.5"/>
    <line id="Line_486" data-name="Line 486" x2="57.393" transform="translate(1221.518 586.786)" fill="none" stroke="#959dac" stroke-miterlimit="10" stroke-width="0.5"/>
    <line id="Line_487" data-name="Line 487" x2="57.393" transform="translate(1221.518 604.391)" fill="none" stroke="#959dac" stroke-miterlimit="10" stroke-width="0.5"/>
    <line id="Line_498" data-name="Line 498" x2="36.279" transform="translate(971.5 606.056)" fill="none" stroke="#959dac" stroke-miterlimit="10" stroke-width="0.5"/>
    <line id="Line_499" data-name="Line 499" x2="36.304" transform="translate(971.5 466.466)" fill="none" stroke="#959dac" stroke-miterlimit="10" stroke-width="0.5"/>
    <line id="Line_500" data-name="Line 500" x2="125.994" transform="translate(899.5 628.997)" fill="none" stroke="#959dac" stroke-miterlimit="10" stroke-width="0.5"/>
    <line id="Line_501" data-name="Line 501" x2="125.716" transform="translate(899.5 442.766)" fill="none" stroke="#959dac" stroke-miterlimit="10" stroke-width="0.5"/>
    <line id="Line_502" data-name="Line 502" y1="186.295" transform="translate(971.722 442.766)" fill="none" stroke="#959dac" stroke-miterlimit="10" stroke-width="0.5"/>
    <line id="Line_503" data-name="Line 503" y1="186.295" transform="translate(899.902 442.803)" fill="none" stroke="#959dac" stroke-miterlimit="10" stroke-width="0.5"/>
    <line id="Line_510" data-name="Line 510" y2="186.339" transform="translate(1025.494 442.666)" fill="none" stroke="#161615" stroke-miterlimit="10" stroke-width="3"/>
    <line id="Line_511" data-name="Line 511" y2="186.339" transform="translate(1041.83 442.666)" fill="none" stroke="#161615" stroke-miterlimit="10" stroke-width="3"/>
    <line id="Line_512" data-name="Line 512" y2="186.339" transform="translate(1058.164 442.666)" fill="none" stroke="#161615" stroke-miterlimit="10" stroke-width="3"/>
    <line id="Line_513" data-name="Line 513" y2="186.339" transform="translate(1074.5 442.666)" fill="none" stroke="#161615" stroke-miterlimit="10" stroke-width="3"/>
    <line id="Line_514" data-name="Line 514" y2="186.339" transform="translate(1090.835 442.666)" fill="none" stroke="#161615" stroke-miterlimit="10" stroke-width="3"/>
    <line id="Line_515" data-name="Line 515" y2="186.339" transform="translate(1107.17 442.666)" fill="none" stroke="#161615" stroke-miterlimit="10" stroke-width="3"/>
    <line id="Line_516" data-name="Line 516" y2="186.339" transform="translate(1123.505 442.666)" fill="none" stroke="#161615" stroke-miterlimit="10" stroke-width="3"/>
    <line id="Line_517" data-name="Line 517" y2="186.339" transform="translate(1139.84 442.666)" fill="none" stroke="#161615" stroke-miterlimit="10" stroke-width="3"/>
    <line id="Line_518" data-name="Line 518" y2="186.339" transform="translate(1156.176 442.666)" fill="none" stroke="#161615" stroke-miterlimit="10" stroke-width="3"/>
    <line id="Line_519" data-name="Line 519" y2="186.339" transform="translate(1172.511 442.666)" fill="none" stroke="#161615" stroke-miterlimit="10" stroke-width="3"/>
    <line id="Line_520" data-name="Line 520" y2="186.339" transform="translate(1188.846 442.666)" fill="none" stroke="#161615" stroke-miterlimit="10" stroke-width="3"/>
    <line id="Line_521" data-name="Line 521" y2="186.339" transform="translate(1205.181 442.666)" fill="none" stroke="#161615" stroke-miterlimit="10" stroke-width="3"/>
    <line id="Line_526" data-name="Line 526" x2="218.053" transform="translate(1007.589 605.561)" fill="none" stroke="#161615" stroke-miterlimit="10" stroke-width="3"/>
    <line id="Line_527" data-name="Line 527" x2="218.053" transform="translate(1007.589 585.633)" fill="none" stroke="#161615" stroke-miterlimit="10" stroke-width="3"/>
    <line id="Line_528" data-name="Line 528" x2="218.053" transform="translate(1007.589 565.705)" fill="none" stroke="#161615" stroke-miterlimit="10" stroke-width="3"/>
    <line id="Line_529" data-name="Line 529" x2="218.053" transform="translate(1007.589 545.777)" fill="none" stroke="#161615" stroke-miterlimit="10" stroke-width="3"/>
    <line id="Line_530" data-name="Line 530" x2="218.053" transform="translate(1007.589 525.85)" fill="none" stroke="#161615" stroke-miterlimit="10" stroke-width="3"/>
    <line id="Line_531" data-name="Line 531" x2="218.053" transform="translate(1007.589 505.923)" fill="none" stroke="#161615" stroke-miterlimit="10" stroke-width="3"/>
    <line id="Line_532" data-name="Line 532" x2="218.053" transform="translate(1007.589 485.995)" fill="none" stroke="#161615" stroke-miterlimit="10" stroke-width="3"/>
    <line id="Line_533" data-name="Line 533" x2="218.053" transform="translate(1007.589 466.067)" fill="none" stroke="#161615" stroke-miterlimit="10" stroke-width="3"/>
    <line id="Line_535" data-name="Line 535" y2="17.604" transform="translate(1278.91 586.786)" fill="none" stroke="#959dac" stroke-miterlimit="10" stroke-width="0.5"/>
    <line id="Line_3230" data-name="Line 3230" y2="12.495" transform="translate(1190.074 629.005)" fill="none" stroke="#959dac" stroke-miterlimit="10" stroke-width="0.5"/>
    <line id="Line_3231" data-name="Line 3231" y2="12.495" transform="translate(1203.957 629.005)" fill="none" stroke="#959dac" stroke-miterlimit="10" stroke-width="0.5"/>
    <g id="Group_4163" data-name="Group 4163" transform="translate(447.914 1469.826) rotate(-90)">
      <text id="Y1_235" data-name="Y1
235" transform="translate(908.574 466.504)" font-size="20" font-family="SegoeUI, Segoe UI"><tspan x="16.746" y="22">Y1</tspan></text>
      <g id="Component_29_55" data-name="Component 29 – 55" transform="translate(908.854 486.997)">
        <g id="Path_981" data-name="Path 981" fill="none">
          <path d="M6.476,0h42.1c3.577,0,6.476,3.582,6.476,8V20c0,4.418-2.9,8-6.476,8H6.476C2.9,28,0,24.418,0,20V8C0,3.582,2.9,0,6.476,0Z" stroke="none"/>
          <path d="M 6.476215362548828 1 C 3.456615447998047 1 0.9999961853027344 4.140190124511719 0.9999961853027344 8 L 0.9999961853027344 20 C 0.9999961853027344 23.85980987548828 3.456615447998047 27 6.476215362548828 27 L 48.57163619995117 27 C 51.59122467041016 27 54.04784393310547 23.85980987548828 54.04784393310547 20 L 54.04784393310547 8 C 54.04784393310547 4.140190124511719 51.59122467041016 1 48.57163619995117 1 L 6.476215362548828 1 M 6.476215362548828 0 L 48.57163619995117 0 C 52.14835739135742 0 55.04784393310547 3.581720352172852 55.04784393310547 8 L 55.04784393310547 20 C 55.04784393310547 24.41827964782715 52.14835739135742 28 48.57163619995117 28 L 6.476215362548828 28 C 2.899494171142578 28 -3.814697265625e-06 24.41827964782715 -3.814697265625e-06 20 L -3.814697265625e-06 8 C -3.814697265625e-06 3.581720352172852 2.899494171142578 0 6.476215362548828 0 Z" stroke="none" fill="#2bc454"/>
        </g>
      </g>
    </g>
    <g id="Group_4165" data-name="Group 4165" transform="translate(380.156 1380.453) rotate(-90)">
      <text id="Y_250" data-name="Y
250" transform="translate(819.201 462.004)" fill="#161615" stroke="#161615" stroke-miterlimit="10" stroke-width="0.3" font-size="20" font-family="SegoeUI, Segoe UI"><tspan x="22.137" y="22">Y</tspan></text>
      <g id="Component_29_57" data-name="Component 29 – 57" transform="translate(819.48 484.422)">
        <g id="Path_981-2" data-name="Path 981" fill="none">
          <path d="M6.476,0h42.1c3.577,0,6.476,3.582,6.476,8V20c0,4.418-2.9,8-6.476,8H6.476C2.9,28,0,24.418,0,20V8C0,3.582,2.9,0,6.476,0Z" stroke="none"/>
          <path d="M 6.476215362548828 1 C 3.456615447998047 1 0.9999961853027344 4.140190124511719 0.9999961853027344 8 L 0.9999961853027344 20 C 0.9999961853027344 23.85980987548828 3.456615447998047 27 6.476215362548828 27 L 48.57163619995117 27 C 51.59122467041016 27 54.04784393310547 23.85980987548828 54.04784393310547 20 L 54.04784393310547 8 C 54.04784393310547 4.140190124511719 51.59122467041016 1 48.57163619995117 1 L 6.476215362548828 1 M 6.476215362548828 0 L 48.57163619995117 0 C 52.14835739135742 0 55.04784393310547 3.581720352172852 55.04784393310547 8 L 55.04784393310547 20 C 55.04784393310547 24.41827964782715 52.14835739135742 28 48.57163619995117 28 L 6.476215362548828 28 C 2.899494171142578 28 -3.814697265625e-06 24.41827964782715 -3.814697265625e-06 20 L -3.814697265625e-06 8 C -3.814697265625e-06 3.581720352172852 2.899494171142578 0 6.476215362548828 0 Z" stroke="none" fill="#2bc454"/>
        </g>
      </g>
    </g>
    <g id="Group_4164" data-name="Group 4164" transform="translate(358.411 1551.798) rotate(-90)">
      <g id="Component_29_56" data-name="Component 29 – 56" transform="translate(908.854 576.086)">
        <g id="Path_981-3" data-name="Path 981" fill="#fff">
          <path d="M 48.57163619995117 27.5 L 6.476215839385986 27.5 C 3.180925846099854 27.5 0.5000057816505432 24.1355094909668 0.5000057816505432 20 L 0.5000057816505432 8 C 0.5000057816505432 3.864490032196045 3.180925846099854 0.5 6.476215839385986 0.5 L 48.57163619995117 0.5 C 51.86693572998047 0.5 54.54785537719727 3.864490032196045 54.54785537719727 8 L 54.54785537719727 20 C 54.54785537719727 24.1355094909668 51.86693572998047 27.5 48.57163619995117 27.5 Z" stroke="none"/>
          <path d="M 6.476215362548828 1 C 3.456615447998047 1 0.9999961853027344 4.140190124511719 0.9999961853027344 8 L 0.9999961853027344 20 C 0.9999961853027344 23.85980987548828 3.456615447998047 27 6.476215362548828 27 L 48.57163619995117 27 C 51.59122467041016 27 54.04784393310547 23.85980987548828 54.04784393310547 20 L 54.04784393310547 8 C 54.04784393310547 4.140190124511719 51.59122467041016 1 48.57163619995117 1 L 6.476215362548828 1 M 6.476215362548828 0 L 48.57163619995117 0 C 52.14835739135742 0 55.04784393310547 3.581720352172852 55.04784393310547 8 L 55.04784393310547 20 C 55.04784393310547 24.41827964782715 52.14835739135742 28 48.57163619995117 28 L 6.476215362548828 28 C 2.899494171142578 28 -3.814697265625e-06 24.41827964782715 -3.814697265625e-06 20 L -3.814697265625e-06 8 C -3.814697265625e-06 3.581720352172852 2.899494171142578 0 6.476215362548828 0 Z" stroke="none" fill="#2bc454"/>
        </g>
      </g>
      <text id="Y2_7.5" data-name="Y2
7.5" transform="translate(916.217 556.007)" fill="#161615" stroke="#161615" stroke-miterlimit="10" stroke-width="0.3" font-size="20" font-family="SegoeUI, Segoe UI"><tspan x="8.942" y="22">Y2</tspan></text>
    </g>
    <g id="Group_4162" data-name="Group 4162" transform="translate(517.945 1388.135) rotate(-90)">
      <g id="Component_29_54" data-name="Component 29 – 54" transform="translate(908.854 416.966)">
        <g id="Path_981-4" data-name="Path 981" fill="#fff">
          <path d="M 48.57163619995117 27.5 L 6.476215839385986 27.5 C 3.180925846099854 27.5 0.5000057816505432 24.1355094909668 0.5000057816505432 20 L 0.5000057816505432 8 C 0.5000057816505432 3.864490032196045 3.180925846099854 0.5 6.476215839385986 0.5 L 48.57163619995117 0.5 C 51.86693572998047 0.5 54.54785537719727 3.864490032196045 54.54785537719727 8 L 54.54785537719727 20 C 54.54785537719727 24.1355094909668 51.86693572998047 27.5 48.57163619995117 27.5 Z" stroke="none"/>
          <path d="M 6.476215362548828 1 C 3.456615447998047 1 0.9999961853027344 4.140190124511719 0.9999961853027344 8 L 0.9999961853027344 20 C 0.9999961853027344 23.85980987548828 3.456615447998047 27 6.476215362548828 27 L 48.57163619995117 27 C 51.59122467041016 27 54.04784393310547 23.85980987548828 54.04784393310547 20 L 54.04784393310547 8 C 54.04784393310547 4.140190124511719 51.59122467041016 1 48.57163619995117 1 L 6.476215362548828 1 M 6.476215362548828 0 L 48.57163619995117 0 C 52.14835739135742 0 55.04784393310547 3.581720352172852 55.04784393310547 8 L 55.04784393310547 20 C 55.04784393310547 24.41827964782715 52.14835739135742 28 48.57163619995117 28 L 6.476215362548828 28 C 2.899494171142578 28 -3.814697265625e-06 24.41827964782715 -3.814697265625e-06 20 L -3.814697265625e-06 8 C -3.814697265625e-06 3.581720352172852 2.899494171142578 0 6.476215362548828 0 Z" stroke="none" fill="#2bc454"/>
        </g>
      </g>
      <text id="Y3_7.5" data-name="Y3
7.5" transform="translate(914.058 396.474)" fill="#161615" stroke="#161615" stroke-miterlimit="10" stroke-width="0.3" font-size="20" font-family="SegoeUI, Segoe UI"><tspan x="10.631" y="22">Y3</tspan></text>
    </g>
    <g id="Group_4166" data-name="Group 4166" transform="translate(180.377 -91.861)">
      <text id="X1_235" data-name="X1
235" transform="translate(908.574 466.504)" font-size="20" font-family="SegoeUI, Segoe UI"><tspan x="16.375" y="22">X1</tspan></text>
      <g id="Component_29_58" data-name="Component 29 – 58" transform="translate(908.854 486.997)">
        <g id="Path_981-5" data-name="Path 981" fill="none">
          <path d="M6.476,0h42.1c3.577,0,6.476,3.582,6.476,8V20c0,4.418-2.9,8-6.476,8H6.476C2.9,28,0,24.418,0,20V8C0,3.582,2.9,0,6.476,0Z" stroke="none"/>
          <path d="M 6.476215362548828 1 C 3.456615447998047 1 0.9999961853027344 4.140190124511719 0.9999961853027344 8 L 0.9999961853027344 20 C 0.9999961853027344 23.85980987548828 3.456615447998047 27 6.476215362548828 27 L 48.57163619995117 27 C 51.59122467041016 27 54.04784393310547 23.85980987548828 54.04784393310547 20 L 54.04784393310547 8 C 54.04784393310547 4.140190124511719 51.59122467041016 1 48.57163619995117 1 L 6.476215362548828 1 M 6.476215362548828 0 L 48.57163619995117 0 C 52.14835739135742 0 55.04784393310547 3.581720352172852 55.04784393310547 8 L 55.04784393310547 20 C 55.04784393310547 24.41827964782715 52.14835739135742 28 48.57163619995117 28 L 6.476215362548828 28 C 2.899494171142578 28 -3.814697265625e-06 24.41827964782715 -3.814697265625e-06 20 L -3.814697265625e-06 8 C -3.814697265625e-06 3.581720352172852 2.899494171142578 0 6.476215362548828 0 Z" stroke="none" fill="#2bc454"/>
        </g>
      </g>
    </g>
    <g id="Group_4167" data-name="Group 4167" transform="translate(271.635 -143.566)">
      <text id="X_600" data-name="X
600" transform="translate(819.201 462.004)" fill="#161615" stroke="#161615" stroke-miterlimit="10" stroke-width="0.3" font-size="20" font-family="SegoeUI, Segoe UI"><tspan x="21.766" y="22">X</tspan></text>
      <g id="Component_29_59" data-name="Component 29 – 59" transform="translate(819.48 484.422)">
        <g id="Path_981-6" data-name="Path 981" fill="none">
          <path d="M6.476,0h42.1c3.577,0,6.476,3.582,6.476,8V20c0,4.418-2.9,8-6.476,8H6.476C2.9,28,0,24.418,0,20V8C0,3.582,2.9,0,6.476,0Z" stroke="none"/>
          <path d="M 6.476215362548828 1 C 3.456615447998047 1 0.9999961853027344 4.140190124511719 0.9999961853027344 8 L 0.9999961853027344 20 C 0.9999961853027344 23.85980987548828 3.456615447998047 27 6.476215362548828 27 L 48.57163619995117 27 C 51.59122467041016 27 54.04784393310547 23.85980987548828 54.04784393310547 20 L 54.04784393310547 8 C 54.04784393310547 4.140190124511719 51.59122467041016 1 48.57163619995117 1 L 6.476215362548828 1 M 6.476215362548828 0 L 48.57163619995117 0 C 52.14835739135742 0 55.04784393310547 3.581720352172852 55.04784393310547 8 L 55.04784393310547 20 C 55.04784393310547 24.41827964782715 52.14835739135742 28 48.57163619995117 28 L 6.476215362548828 28 C 2.899494171142578 28 -3.814697265625e-06 24.41827964782715 -3.814697265625e-06 20 L -3.814697265625e-06 8 C -3.814697265625e-06 3.581720352172852 2.899494171142578 0 6.476215362548828 0 Z" stroke="none" fill="#2bc454"/>
        </g>
      </g>
    </g>
    <g id="Group_4168" data-name="Group 4168" transform="translate(77.615 -181.363)">
      <g id="Component_29_60" data-name="Component 29 – 60" transform="translate(908.854 576.086)">
        <g id="Path_981-7" data-name="Path 981" fill="#fff">
          <path d="M 48.57163619995117 27.5 L 6.476215839385986 27.5 C 3.180925846099854 27.5 0.5000057816505432 24.1355094909668 0.5000057816505432 20 L 0.5000057816505432 8 C 0.5000057816505432 3.864490032196045 3.180925846099854 0.5 6.476215839385986 0.5 L 48.57163619995117 0.5 C 51.86693572998047 0.5 54.54785537719727 3.864490032196045 54.54785537719727 8 L 54.54785537719727 20 C 54.54785537719727 24.1355094909668 51.86693572998047 27.5 48.57163619995117 27.5 Z" stroke="none"/>
          <path d="M 6.476215362548828 1 C 3.456615447998047 1 0.9999961853027344 4.140190124511719 0.9999961853027344 8 L 0.9999961853027344 20 C 0.9999961853027344 23.85980987548828 3.456615447998047 27 6.476215362548828 27 L 48.57163619995117 27 C 51.59122467041016 27 54.04784393310547 23.85980987548828 54.04784393310547 20 L 54.04784393310547 8 C 54.04784393310547 4.140190124511719 51.59122467041016 1 48.57163619995117 1 L 6.476215362548828 1 M 6.476215362548828 0 L 48.57163619995117 0 C 52.14835739135742 0 55.04784393310547 3.581720352172852 55.04784393310547 8 L 55.04784393310547 20 C 55.04784393310547 24.41827964782715 52.14835739135742 28 48.57163619995117 28 L 6.476215362548828 28 C 2.899494171142578 28 -3.814697265625e-06 24.41827964782715 -3.814697265625e-06 20 L -3.814697265625e-06 8 C -3.814697265625e-06 3.581720352172852 2.899494171142578 0 6.476215362548828 0 Z" stroke="none" fill="#2bc454"/>
        </g>
      </g>
      <text id="X2_7.5" data-name="X2
7.5" transform="translate(916.217 556.007)" fill="#161615" stroke="#161615" stroke-miterlimit="10" stroke-width="0.3" font-size="20" font-family="SegoeUI, Segoe UI"><tspan x="8.571" y="22">X2</tspan></text>
    </g>
    <g id="Group_4169" data-name="Group 4169" transform="translate(279.992 -21.83)">
      <g id="Component_29_61" data-name="Component 29 – 61" transform="translate(908.854 416.966)">
        <g id="Path_981-8" data-name="Path 981" fill="#fff">
          <path d="M 48.57163619995117 27.5 L 6.476215839385986 27.5 C 3.180925846099854 27.5 0.5000057816505432 24.1355094909668 0.5000057816505432 20 L 0.5000057816505432 8 C 0.5000057816505432 3.864490032196045 3.180925846099854 0.5 6.476215839385986 0.5 L 48.57163619995117 0.5 C 51.86693572998047 0.5 54.54785537719727 3.864490032196045 54.54785537719727 8 L 54.54785537719727 20 C 54.54785537719727 24.1355094909668 51.86693572998047 27.5 48.57163619995117 27.5 Z" stroke="none"/>
          <path d="M 6.476215362548828 1 C 3.456615447998047 1 0.9999961853027344 4.140190124511719 0.9999961853027344 8 L 0.9999961853027344 20 C 0.9999961853027344 23.85980987548828 3.456615447998047 27 6.476215362548828 27 L 48.57163619995117 27 C 51.59122467041016 27 54.04784393310547 23.85980987548828 54.04784393310547 20 L 54.04784393310547 8 C 54.04784393310547 4.140190124511719 51.59122467041016 1 48.57163619995117 1 L 6.476215362548828 1 M 6.476215362548828 0 L 48.57163619995117 0 C 52.14835739135742 0 55.04784393310547 3.581720352172852 55.04784393310547 8 L 55.04784393310547 20 C 55.04784393310547 24.41827964782715 52.14835739135742 28 48.57163619995117 28 L 6.476215362548828 28 C 2.899494171142578 28 -3.814697265625e-06 24.41827964782715 -3.814697265625e-06 20 L -3.814697265625e-06 8 C -3.814697265625e-06 3.581720352172852 2.899494171142578 0 6.476215362548828 0 Z" stroke="none" fill="#2bc454"/>
        </g>
      </g>
      <text id="X3_7.5" data-name="X3
7.5" transform="translate(914.058 396.474)" fill="#161615" stroke="#161615" stroke-miterlimit="10" stroke-width="0.3" font-size="20" font-family="SegoeUI, Segoe UI"><tspan x="10.26" y="22">X3</tspan></text>
    </g>
    <g id="Component_29_62" data-name="Component 29 – 62" transform="translate(1333.775 579.728)">
      <g id="Path_981-9" data-name="Path 981" fill="#fff">
        <path d="M 48.57163619995117 27.5 L 6.476215839385986 27.5 C 3.180925846099854 27.5 0.5000057816505432 24.1355094909668 0.5000057816505432 20 L 0.5000057816505432 8 C 0.5000057816505432 3.864490032196045 3.180925846099854 0.5 6.476215839385986 0.5 L 48.57163619995117 0.5 C 51.86693572998047 0.5 54.54785537719727 3.864490032196045 54.54785537719727 8 L 54.54785537719727 20 C 54.54785537719727 24.1355094909668 51.86693572998047 27.5 48.57163619995117 27.5 Z" stroke="none"/>
        <path d="M 6.476215362548828 1 C 3.456615447998047 1 0.9999961853027344 4.140190124511719 0.9999961853027344 8 L 0.9999961853027344 20 C 0.9999961853027344 23.85980987548828 3.456615447998047 27 6.476215362548828 27 L 48.57163619995117 27 C 51.59122467041016 27 54.04784393310547 23.85980987548828 54.04784393310547 20 L 54.04784393310547 8 C 54.04784393310547 4.140190124511719 51.59122467041016 1 48.57163619995117 1 L 6.476215362548828 1 M 6.476215362548828 0 L 48.57163619995117 0 C 52.14835739135742 0 55.04784393310547 3.581720352172852 55.04784393310547 8 L 55.04784393310547 20 C 55.04784393310547 24.41827964782715 52.14835739135742 28 48.57163619995117 28 L 6.476215362548828 28 C 2.899494171142578 28 -3.814697265625e-06 24.41827964782715 -3.814697265625e-06 20 L -3.814697265625e-06 8 C -3.814697265625e-06 3.581720352172852 2.899494171142578 0 6.476215362548828 0 Z" stroke="none" fill="#2bc454"/>
      </g>
    </g>
    <g id="Component_29_63" data-name="Component 29 – 63" transform="translate(1333.775 613.254)">
      <g id="Path_981-10" data-name="Path 981" fill="#fff">
        <path d="M 48.57163619995117 27.5 L 6.476215839385986 27.5 C 3.180925846099854 27.5 0.5000057816505432 24.1355094909668 0.5000057816505432 20 L 0.5000057816505432 8 C 0.5000057816505432 3.864490032196045 3.180925846099854 0.5 6.476215839385986 0.5 L 48.57163619995117 0.5 C 51.86693572998047 0.5 54.54785537719727 3.864490032196045 54.54785537719727 8 L 54.54785537719727 20 C 54.54785537719727 24.1355094909668 51.86693572998047 27.5 48.57163619995117 27.5 Z" stroke="none"/>
        <path d="M 6.476215362548828 1 C 3.456615447998047 1 0.9999961853027344 4.140190124511719 0.9999961853027344 8 L 0.9999961853027344 20 C 0.9999961853027344 23.85980987548828 3.456615447998047 27 6.476215362548828 27 L 48.57163619995117 27 C 51.59122467041016 27 54.04784393310547 23.85980987548828 54.04784393310547 20 L 54.04784393310547 8 C 54.04784393310547 4.140190124511719 51.59122467041016 1 48.57163619995117 1 L 6.476215362548828 1 M 6.476215362548828 0 L 48.57163619995117 0 C 52.14835739135742 0 55.04784393310547 3.581720352172852 55.04784393310547 8 L 55.04784393310547 20 C 55.04784393310547 24.41827964782715 52.14835739135742 28 48.57163619995117 28 L 6.476215362548828 28 C 2.899494171142578 28 -3.814697265625e-06 24.41827964782715 -3.814697265625e-06 20 L -3.814697265625e-06 8 C -3.814697265625e-06 3.581720352172852 2.899494171142578 0 6.476215362548828 0 Z" stroke="none" fill="#2bc454"/>
      </g>
    </g>
    <text id="_2_15" data-name="@2     15" transform="translate(1268.43 585.633)" fill="#161615" stroke="#161615" stroke-miterlimit="10" stroke-width="0.3" font-size="20" font-family="SegoeUI, Segoe UI"><tspan x="21.518" y="22" xml:space="preserve">@2     15</tspan></text>
    <text id="_1_15" data-name="@1     15" transform="translate(1268.43 619.16)" fill="#161615" stroke="#161615" stroke-miterlimit="10" stroke-width="0.3" font-size="20" font-family="SegoeUI, Segoe UI"><tspan x="21.518" y="22" xml:space="preserve">@1     15</tspan></text>
  </g>
</svg>
