<svg xmlns="http://www.w3.org/2000/svg" width="22.417" height="13.379" viewBox="0 0 22.417 13.379">
  <g id="eye" transform="translate(0.43 -106.262)">
    <g id="Group_4253" data-name="Group 4253" transform="translate(0 106.662)">
      <g id="Group_4252" data-name="Group 4252" transform="translate(0)">
        <path id="Path_6337" data-name="Path 6337" d="M21.485,112.7c-.17-.247-4.251-6.035-10.7-6.035-5.536,0-10.469,5.754-10.676,6a.451.451,0,0,0,0,.58c.208.245,5.14,6,10.676,6s10.469-5.754,10.676-6A.449.449,0,0,0,21.485,112.7Zm-10.7,5.646c-4.438,0-8.657-4.232-9.729-5.391,1.07-1.16,5.285-5.391,9.729-5.391,5.193,0,8.858,4.226,9.753,5.367C19.5,114.05,15.258,118.343,10.782,118.343Z" transform="translate(0 -106.662)" fill="#353d4a" stroke="#353d4a" stroke-width="0.8"/>
      </g>
    </g>
    <g id="Group_4255" data-name="Group 4255" transform="translate(7.188 109.358)">
      <g id="Group_4254" data-name="Group 4254" transform="translate(0 0)">
        <path id="Path_6338" data-name="Path 6338" d="M174.256,170.662a3.594,3.594,0,1,0,3.594,3.594A3.6,3.6,0,0,0,174.256,170.662Zm0,6.29a2.7,2.7,0,1,1,2.7-2.7A2.7,2.7,0,0,1,174.256,176.952Z" transform="translate(-170.662 -170.662)" fill="#2bc454" stroke="#2bc454" stroke-width="0.8"/>
      </g>
    </g>
  </g>
</svg>
