<svg xmlns="http://www.w3.org/2000/svg" width="23.528" height="22.01" viewBox="0 0 23.528 22.01">
  <g id="quantity" transform="translate(0.25 0.26)">
    <path id="Path_6293" data-name="Path 6293" d="M23.765,8.491,13.019,2.351a.768.768,0,0,0-.761,0L1.512,8.491A.768.768,0,0,0,1.53,9.835l10.746,5.757a.768.768,0,0,0,.725,0L23.747,9.835a.768.768,0,0,0,.018-1.343ZM12.638,14.044,3.477,9.136,12.638,3.9,21.8,9.137Z" transform="translate(-1.125 -2.25)" fill="#353d4a" stroke="#353d4a" stroke-width="0.5"/>
    <path id="Path_6294" data-name="Path 6294" d="M13.366,24.231l10.376-5.707V16.772L13,22.683,2.25,16.772v1.752l10.376,5.707A.768.768,0,0,0,13.366,24.231Z" transform="translate(-1.482 -6.864)" fill="#2bc454" stroke="#2bc454" stroke-width="0.5"/>
    <path id="Path_6295" data-name="Path 6295" d="M2.25,24.69l10.385,5.539a.768.768,0,0,0,.723,0L23.742,24.69V22.95L13,28.681,2.25,22.95Z" transform="translate(-1.482 -8.827)" fill="#2bc454" stroke="#2bc454" stroke-width="0.5"/>
  </g>
</svg>
