<svg xmlns="http://www.w3.org/2000/svg" width="309.825" height="108" viewBox="0 0 309.825 108">
  <g id="Group_4354" data-name="Group 4354" transform="translate(-25.175 -1078.045)">
    <text id="הזמנה_מס_2009" data-name="הזמנה מס׳ 2009" transform="translate(25.175 1079.057)" fill="#4e5055" font-size="20" font-family="Heebo-Regular, Heebo" letter-spacing="0.02em"><tspan x="0" y="21">L3</tspan></text>
    <text id="הזמנה_מס_2009-2" data-name="הזמנה מס׳ 2009" transform="translate(136.075 1079.057)" fill="#4e5055" font-size="20" font-family="Heebo-Regular, Heebo" letter-spacing="0.02em"><tspan x="0" y="21">L2</tspan></text>
    <text id="הזמנה_מס_2009-3" data-name="הזמנה מס׳ 2009" transform="translate(126.367 1156.057)" fill="#4e5055" font-size="20" font-family="Heebo-Regular, Heebo" letter-spacing="0.02em"><tspan x="0" y="21">@2</tspan></text>
    <text id="הזמנה_מס_2009-4" data-name="הזמנה מס׳ 2009" transform="translate(246.546 1079.057)" fill="#4e5055" font-size="20" font-family="Heebo-Regular, Heebo" letter-spacing="0.02em"><tspan x="0" y="21">L1</tspan></text>
    <text id="הזמנה_מס_2009-5" data-name="הזמנה מס׳ 2009" transform="translate(241.546 1156.057)" fill="#4e5055" font-size="20" font-family="Heebo-Regular, Heebo" letter-spacing="0.02em"><tspan x="0" y="21">@1</tspan></text>
    <g id="Rectangle_1834" data-name="Rectangle 1834" transform="translate(58.176 1078.045)" fill="#fff" stroke="#2bc454" stroke-width="1">
      <rect width="53.438" height="31" rx="7" stroke="none"/>
      <rect x="0.5" y="0.5" width="52.438" height="30" rx="6.5" fill="none"/>
    </g>
    <g id="Rectangle_1835" data-name="Rectangle 1835" transform="translate(167.075 1078.045)" fill="#fff" stroke="#2bc454" stroke-width="1">
      <rect width="53.438" height="31" rx="7" stroke="none"/>
      <rect x="0.5" y="0.5" width="52.438" height="30" rx="6.5" fill="none"/>
    </g>
    <g id="Rectangle_1889" data-name="Rectangle 1889" transform="translate(167.075 1155.045)" fill="#fff" stroke="#2bc454" stroke-width="1">
      <rect width="53.438" height="31" rx="7" stroke="none"/>
      <rect x="0.5" y="0.5" width="52.438" height="30" rx="6.5" fill="none"/>
    </g>
    <g id="Rectangle_1836" data-name="Rectangle 1836" transform="translate(276.387 1078.045)" fill="#fff" stroke="#2bc454" stroke-width="1">
      <rect width="53.438" height="31" rx="7" stroke="none"/>
      <rect x="0.5" y="0.5" width="52.438" height="30" rx="6.5" fill="none"/>
    </g>
    <g id="Rectangle_1888" data-name="Rectangle 1888" transform="translate(276.387 1155.045)" fill="#fff" stroke="#2bc454" stroke-width="1">
      <rect width="53.438" height="31" rx="7" stroke="none"/>
      <rect x="0.5" y="0.5" width="52.438" height="30" rx="6.5" fill="none"/>
    </g>
    <text id="הזמנה_מס_2009-6" data-name="הזמנה מס׳ 2009" transform="translate(65.797 1083.545)" fill="#374051" font-size="15" font-family="Heebo-Regular, Heebo" letter-spacing="0.02em"><tspan x="-8.579" y="16">50</tspan></text>
    <text id="הזמנה_מס_2009-7" data-name="הזמנה מס׳ 2009" transform="translate(176.696 1083.545)" fill="#374051" font-size="15" font-family="Heebo-Regular, Heebo" letter-spacing="0.02em"><tspan x="-12.943" y="16">200</tspan></text>
    <text id="הזמנה_מס_2009-8" data-name="הזמנה מס׳ 2009" transform="translate(176.696 1160.545)" fill="#374051" font-size="15" font-family="Heebo-Regular, Heebo" letter-spacing="0.02em"><tspan x="-8.579" y="16">20</tspan></text>
    <text id="הזמנה_מס_2009-9" data-name="הזמנה מס׳ 2009" transform="translate(284.008 1083.545)" fill="#374051" font-size="15" font-family="Heebo-Regular, Heebo" letter-spacing="0.02em"><tspan x="-12.943" y="16">150</tspan></text>
    <text id="הזמנה_מס_2009-10" data-name="הזמנה מס׳ 2009" transform="translate(284.008 1160.545)" fill="#374051" font-size="15" font-family="Heebo-Regular, Heebo" letter-spacing="0.02em"><tspan x="-8.579" y="16">30</tspan></text>
    <line id="Line_3134" data-name="Line 3134" x2="308" transform="translate(26.825 1125.484)" fill="none" stroke="#707070" stroke-width="1"/>
    <line id="Line_3194" data-name="Line 3194" x2="308" transform="translate(26.825 1137.484)" fill="none" stroke="#707070" stroke-width="1"/>
    <line id="Line_3137" data-name="Line 3137" y2="66.428" transform="translate(239.5 1079.057)" fill="none" stroke="#707070" stroke-width="1"/>
    <line id="Line_3195" data-name="Line 3195" y2="66.428" transform="translate(334.5 1079.057)" fill="none" stroke="#707070" stroke-width="1"/>
    <line id="Line_3139" data-name="Line 3139" y2="28" transform="translate(180.5 1117.484)" fill="none" stroke="#707070" stroke-width="1"/>
    <line id="Line_3200" data-name="Line 3200" y2="28" transform="translate(200.5 1117.484)" fill="none" stroke="#707070" stroke-width="1"/>
    <line id="Line_3199" data-name="Line 3199" y2="28" transform="translate(160.5 1117.484)" fill="none" stroke="#707070" stroke-width="1"/>
    <line id="Line_3138" data-name="Line 3138" y2="28" transform="translate(219.5 1117.484)" fill="none" stroke="#707070" stroke-width="1"/>
    <line id="Line_3196" data-name="Line 3196" y2="28" transform="translate(302.711 1117.484)" fill="none" stroke="#707070" stroke-width="1"/>
    <line id="Line_3140" data-name="Line 3140" y2="28" transform="translate(141.5 1117.484)" fill="none" stroke="#707070" stroke-width="1"/>
    <line id="Line_3198" data-name="Line 3198" y2="28" transform="translate(271.105 1117.484)" fill="none" stroke="#707070" stroke-width="1"/>
    <line id="Line_3141" data-name="Line 3141" y2="66.428" transform="translate(121.5 1079.057)" fill="none" stroke="#707070" stroke-width="1"/>
    <path id="Path_6325" data-name="Path 6325" d="M4921.113-4819.379c-7.9-6.891-31.429-27.178-31.429-27.178" transform="translate(-4586.79 5964.477)" fill="none" stroke="#707070" stroke-width="1"/>
    <path id="Path_6326" data-name="Path 6326" d="M4921.113-4819.379c-7.9-6.891-31.267-27.227-31.267-27.227" transform="translate(-4618.578 5964.477)" fill="none" stroke="#707070" stroke-width="1"/>
    <path id="Path_6327" data-name="Path 6327" d="M4921.113-4819.379c-7.9-6.891-31.429-27.178-31.429-27.178" transform="translate(-4650.184 5964.477)" fill="none" stroke="#707070" stroke-width="1"/>
    <path id="Path_6328" data-name="Path 6328" d="M4806.583-4846.682l19.821,27.312" transform="translate(-4587 5964.477)" fill="none" stroke="#707070" stroke-width="1"/>
    <path id="Path_6330" data-name="Path 6330" d="M4806.583-4846.682l19.821,27.312" transform="translate(-4626.037 5964.477)" fill="none" stroke="#707070" stroke-width="1"/>
    <path id="Path_6331" data-name="Path 6331" d="M4806.583-4846.682l19.821,27.312" transform="translate(-4646.037 5964.477)" fill="none" stroke="#707070" stroke-width="1"/>
    <path id="Path_6333" data-name="Path 6333" d="M4806.583-4846.682l19.821,27.312" transform="translate(-4685.037 5964.477)" fill="none" stroke="#707070" stroke-width="1"/>
    <path id="Path_6329" data-name="Path 6329" d="M4806.583-4846.682l18.773,27.312" transform="translate(-4605.952 5964.477)" fill="none" stroke="#707070" stroke-width="1"/>
    <path id="Path_6332" data-name="Path 6332" d="M4806.583-4846.682l18.773,27.312" transform="translate(-4664.988 5964.477)" fill="none" stroke="#707070" stroke-width="1"/>
  </g>
</svg>
