<svg xmlns="http://www.w3.org/2000/svg" width="23.501" height="23.85" viewBox="0 0 23.501 23.85">
  <g id="weight" transform="translate(-27.205 -2272.944)">
    <g id="bar" transform="translate(27.959 2273.694)">
      <path id="Path_6285" data-name="Path 6285" d="M20.788,22.763H1.589a1.4,1.4,0,0,1-1.375-1.64L2.678,7.154A1.394,1.394,0,0,1,4.054,6H18.323A1.394,1.394,0,0,1,19.7,7.154l2.465,13.969a1.4,1.4,0,0,1-1.375,1.64ZM4.054,6.931a.466.466,0,0,0-.459.385L1.13,21.285a.467.467,0,0,0,.459.547h19.2a.467.467,0,0,0,.459-.547L18.782,7.316a.466.466,0,0,0-.459-.385Z" transform="translate(-0.192 -0.412)" fill="#353d4a" stroke="#353d4a" stroke-width="1.5"/>
      <path id="Path_6286" data-name="Path 6286" d="M11.759,6.519a3.259,3.259,0,1,1,3.259-3.259A3.263,3.263,0,0,1,11.759,6.519Zm0-5.588a2.328,2.328,0,1,0,2.328,2.328A2.331,2.331,0,0,0,11.759.931Z" transform="translate(-0.763)" fill="#353d4a" stroke="#353d4a" stroke-width="1.5"/>
    </g>
    <circle id="Ellipse_361" data-name="Ellipse 361" cx="2" cy="2" r="2" transform="translate(37 2275)" fill="#2bc454"/>
  </g>
</svg>
