<svg xmlns="http://www.w3.org/2000/svg" width="493.502" height="245.697" viewBox="0 0 493.502 245.697">
  <g id="Group_4174" data-name="Group 4174" transform="translate(-18702.445 20584.158)">
    <text id="_90O" data-name="90O" transform="translate(19116.564 -20508.004)" fill="#9a9a9a" stroke="#9a9a9a" stroke-miterlimit="10" stroke-width="0.3" font-size="20" font-family="SegoeUI, Segoe UI"><tspan x="3.392" y="22">90</tspan><tspan y="22" font-size="11.666" baseline-shift="6.666000209254424">O</tspan></text>
    <text id="_90O-2" data-name="90O" transform="translate(18737.727 -20501.295)" fill="#9a9a9a" stroke="#9a9a9a" stroke-miterlimit="10" stroke-width="0.3" font-size="20" font-family="SegoeUI, Segoe UI"><tspan x="3.392" y="22">90</tspan><tspan y="22" font-size="11.666" baseline-shift="6.666000209254424">O</tspan></text>
    <text id="_90O-3" data-name="90O" transform="translate(19060.967 -20372.166)" fill="#9a9a9a" stroke="#9a9a9a" stroke-miterlimit="10" stroke-width="0.3" font-size="20" font-family="SegoeUI, Segoe UI"><tspan x="3.392" y="22">90</tspan><tspan y="22" font-size="11.666" baseline-shift="6.666000209254424">O</tspan></text>
    <text id="_90O-4" data-name="90O" transform="translate(18807.719 -20374.02)" fill="#9a9a9a" stroke="#9a9a9a" stroke-miterlimit="10" stroke-width="0.3" font-size="20" font-family="SegoeUI, Segoe UI"><tspan x="3.392" y="22">90</tspan><tspan y="22" font-size="11.666" baseline-shift="6.666000209254424">O</tspan></text>
    <path id="Path_975" data-name="Path 975" d="M6634.892-7942.7h-76.715v184.144H6241.583v-176.082h-79.62" transform="translate(12550.033 -12582.408)" fill="none" stroke="#4e5055" stroke-width="5"/>
    <path id="Path_976" data-name="Path 976" d="M6245.571-7933.48c0,18.278,16.966,20.063,16.966,20.063" transform="translate(12527.341 -12582.559)" fill="none" stroke="#9a9a9a" stroke-width="1"/>
    <path id="Path_977" data-name="Path 977" d="M0,0C0,16.815,18.443,18.456,18.443,18.456" transform="translate(19107.336 -20506.662) rotate(-90)" fill="none" stroke="#9a9a9a" stroke-width="1"/>
    <path id="Path_978" data-name="Path 978" d="M0,0C0,18.278,16.966,20.063,16.966,20.063" transform="translate(18808.697 -20342.004) rotate(180)" fill="none" stroke="#9a9a9a" stroke-width="1"/>
    <path id="Path_979" data-name="Path 979" d="M0,0C0,16.815,18.443,18.456,18.443,18.456" transform="translate(19107.336 -20359.404) rotate(90)" fill="none" stroke="#9a9a9a" stroke-width="1"/>
    <g id="Rectangle_1835" data-name="Rectangle 1835" transform="translate(19116.564 -20563.105)" fill="#fff" stroke="#2bc454" stroke-width="2">
      <rect width="53.438" height="31" rx="7" stroke="none"/>
      <rect x="1" y="1" width="51.438" height="29" rx="6" fill="none"/>
    </g>
    <text id="E_60" data-name="E
60" transform="translate(19091.646 -20583.857)" fill="#161615" stroke="#161615" stroke-miterlimit="10" stroke-width="0.3" font-size="20" font-family="SegoeUI, Segoe UI"><tspan x="46.579" y="22">E</tspan></text>
    <g id="Rectangle_1835-2" data-name="Rectangle 1835" transform="translate(19148.283 -20452.832) rotate(90)" fill="#fff" stroke="#9a9a9a" stroke-width="1">
      <rect width="53.438" height="31" rx="7" stroke="none"/>
      <rect x="0.5" y="0.5" width="52.438" height="30" rx="6.5" fill="none"/>
    </g>
    <text id="D_120" data-name="D
120" transform="translate(19169.002 -20482.48) rotate(90)" fill="#161615" stroke="#161615" stroke-miterlimit="10" stroke-width="0.3" font-size="20" font-family="SegoeUI, Segoe UI"><tspan x="49.119" y="22">D</tspan><tspan x="39.959" y="50">120</tspan></text>
    <g id="Rectangle_1835-3" data-name="Rectangle 1835" transform="translate(18726.637 -20556.105)" fill="#fff" stroke="#9a9a9a" stroke-width="1">
      <rect width="53.438" height="31" rx="7" stroke="none"/>
      <rect x="0.5" y="0.5" width="52.438" height="30" rx="6.5" fill="none"/>
    </g>
    <g id="Rectangle_1835-4" data-name="Rectangle 1835" transform="translate(18923.613 -20381.184)" fill="#fff" stroke="#9a9a9a" stroke-width="1">
      <rect width="53.438" height="31" rx="7" stroke="none"/>
      <rect x="0.5" y="0.5" width="52.438" height="30" rx="6.5" fill="none"/>
    </g>
    <text id="A_60" data-name="A
60" transform="translate(18702.746 -20576.48)" fill="#161615" stroke="#161615" stroke-miterlimit="10" stroke-width="0.3" font-size="20" font-family="SegoeUI, Segoe UI"><tspan x="45.187" y="22">A</tspan></text>
    <text id="C_300" data-name="C
300" transform="translate(18899.695 -20402.395)" fill="#161615" stroke="#161615" stroke-miterlimit="10" stroke-width="0.3" font-size="20" font-family="SegoeUI, Segoe UI"><tspan x="45.446" y="22">C</tspan></text>
    <g id="Rectangle_1836" data-name="Rectangle 1836" transform="translate(18750.395 -20388.816) rotate(-90)" fill="#fff" stroke="#9a9a9a" stroke-width="1">
      <rect width="53.438" height="31" rx="7" stroke="none"/>
      <rect x="0.5" y="0.5" width="52.438" height="30" rx="6.5" fill="none"/>
    </g>
    <text id="B_120" data-name="B
120" transform="translate(18729.439 -20359.404) rotate(-90)" fill="#161615" stroke="#161615" stroke-miterlimit="10" stroke-width="0.3" font-size="20" font-family="SegoeUI, Segoe UI"><tspan x="50.398" y="22">B</tspan><tspan x="39.959" y="50">120</tspan></text>
  </g>
</svg>
